<svg width="1230" height="1230" viewBox="0 0 1230 1230" fill="none" xmlns="http://www.w3.org/2000/svg">
<path d="M42.4138 0H0V42.4138H42.4138V0Z" fill="black"/>
<path d="M84.8276 0H42.4138V42.4138H84.8276V0Z" fill="black"/>
<path d="M127.241 0H84.8276V42.4138H127.241V0Z" fill="black"/>
<path d="M169.655 0H127.241V42.4138H169.655V0Z" fill="black"/>
<path d="M212.069 0H169.655V42.4138H212.069V0Z" fill="black"/>
<path d="M254.483 0H212.069V42.4138H254.483V0Z" fill="black"/>
<path d="M296.897 0H254.483V42.4138H296.897V0Z" fill="black"/>
<path d="M381.724 0H339.31V42.4138H381.724V0Z" fill="black"/>
<path d="M508.966 0H466.552V42.4138H508.966V0Z" fill="black"/>
<path d="M678.621 0H636.207V42.4138H678.621V0Z" fill="black"/>
<path d="M721.034 0H678.621V42.4138H721.034V0Z" fill="black"/>
<path d="M805.862 0H763.448V42.4138H805.862V0Z" fill="black"/>
<path d="M975.517 0H933.103V42.4138H975.517V0Z" fill="black"/>
<path d="M1017.93 0H975.517V42.4138H1017.93V0Z" fill="black"/>
<path d="M1060.34 0H1017.93V42.4138H1060.34V0Z" fill="black"/>
<path d="M1102.76 0H1060.34V42.4138H1102.76V0Z" fill="black"/>
<path d="M1145.17 0H1102.76V42.4138H1145.17V0Z" fill="black"/>
<path d="M1187.59 0H1145.17V42.4138H1187.59V0Z" fill="black"/>
<path d="M1230 0H1187.59V42.4138H1230V0Z" fill="black"/>
<path d="M42.4138 42.4138H0V84.8276H42.4138V42.4138Z" fill="black"/>
<path d="M296.897 42.4138H254.483V84.8276H296.897V42.4138Z" fill="black"/>
<path d="M424.138 42.4138H381.724V84.8276H424.138V42.4138Z" fill="black"/>
<path d="M466.552 42.4138H424.138V84.8276H466.552V42.4138Z" fill="black"/>
<path d="M551.379 42.4138H508.966V84.8276H551.379V42.4138Z" fill="black"/>
<path d="M636.207 42.4138H593.793V84.8276H636.207V42.4138Z" fill="black"/>
<path d="M763.448 42.4138H721.034V84.8276H763.448V42.4138Z" fill="black"/>
<path d="M890.69 42.4138H848.276V84.8276H890.69V42.4138Z" fill="black"/>
<path d="M975.517 42.4138H933.103V84.8276H975.517V42.4138Z" fill="black"/>
<path d="M1230 42.4138H1187.59V84.8276H1230V42.4138Z" fill="black"/>
<path d="M42.4138 84.8276H0V127.241H42.4138V84.8276Z" fill="black"/>
<path d="M127.241 84.8276H84.8276V127.241H127.241V84.8276Z" fill="black"/>
<path d="M169.655 84.8276H127.241V127.241H169.655V84.8276Z" fill="black"/>
<path d="M212.069 84.8276H169.655V127.241H212.069V84.8276Z" fill="black"/>
<path d="M296.897 84.8276H254.483V127.241H296.897V84.8276Z" fill="black"/>
<path d="M381.724 84.8276H339.31V127.241H381.724V84.8276Z" fill="black"/>
<path d="M424.138 84.8276H381.724V127.241H424.138V84.8276Z" fill="black"/>
<path d="M466.552 84.8276H424.138V127.241H466.552V84.8276Z" fill="black"/>
<path d="M508.966 84.8276H466.552V127.241H508.966V84.8276Z" fill="black"/>
<path d="M636.207 84.8276H593.793V127.241H636.207V84.8276Z" fill="black"/>
<path d="M678.621 84.8276H636.207V127.241H678.621V84.8276Z" fill="black"/>
<path d="M975.517 84.8276H933.103V127.241H975.517V84.8276Z" fill="black"/>
<path d="M1060.34 84.8276H1017.93V127.241H1060.34V84.8276Z" fill="black"/>
<path d="M1102.76 84.8276H1060.34V127.241H1102.76V84.8276Z" fill="black"/>
<path d="M1145.17 84.8276H1102.76V127.241H1145.17V84.8276Z" fill="black"/>
<path d="M1230 84.8276H1187.59V127.241H1230V84.8276Z" fill="black"/>
<path d="M42.4138 127.241H0V169.655H42.4138V127.241Z" fill="black"/>
<path d="M127.241 127.241H84.8276V169.655H127.241V127.241Z" fill="black"/>
<path d="M169.655 127.241H127.241V169.655H169.655V127.241Z" fill="black"/>
<path d="M212.069 127.241H169.655V169.655H212.069V127.241Z" fill="black"/>
<path d="M296.897 127.241H254.483V169.655H296.897V127.241Z" fill="black"/>
<path d="M381.724 127.241H339.31V169.655H381.724V127.241Z" fill="black"/>
<path d="M466.552 127.241H424.138V169.655H466.552V127.241Z" fill="black"/>
<path d="M551.379 127.241H508.966V169.655H551.379V127.241Z" fill="black"/>
<path d="M593.793 127.241H551.379V169.655H593.793V127.241Z" fill="black"/>
<path d="M636.207 127.241H593.793V169.655H636.207V127.241Z" fill="black"/>
<path d="M678.621 127.241H636.207V169.655H678.621V127.241Z" fill="black"/>
<path d="M805.862 127.241H763.448V169.655H805.862V127.241Z" fill="black"/>
<path d="M975.517 127.241H933.103V169.655H975.517V127.241Z" fill="black"/>
<path d="M1060.34 127.241H1017.93V169.655H1060.34V127.241Z" fill="black"/>
<path d="M1102.76 127.241H1060.34V169.655H1102.76V127.241Z" fill="black"/>
<path d="M1145.17 127.241H1102.76V169.655H1145.17V127.241Z" fill="black"/>
<path d="M1230 127.241H1187.59V169.655H1230V127.241Z" fill="black"/>
<path d="M42.4138 169.655H0V212.069H42.4138V169.655Z" fill="black"/>
<path d="M127.241 169.655H84.8276V212.069H127.241V169.655Z" fill="black"/>
<path d="M169.655 169.655H127.241V212.069H169.655V169.655Z" fill="black"/>
<path d="M212.069 169.655H169.655V212.069H212.069V169.655Z" fill="black"/>
<path d="M296.897 169.655H254.483V212.069H296.897V169.655Z" fill="black"/>
<path d="M508.966 169.655H466.552V212.069H508.966V169.655Z" fill="black"/>
<path d="M551.379 169.655H508.966V212.069H551.379V169.655Z" fill="black"/>
<path d="M593.793 169.655H551.379V212.069H593.793V169.655Z" fill="black"/>
<path d="M636.207 169.655H593.793V212.069H636.207V169.655Z" fill="black"/>
<path d="M721.034 169.655H678.621V212.069H721.034V169.655Z" fill="black"/>
<path d="M763.448 169.655H721.034V212.069H763.448V169.655Z" fill="black"/>
<path d="M890.69 169.655H848.276V212.069H890.69V169.655Z" fill="black"/>
<path d="M975.517 169.655H933.103V212.069H975.517V169.655Z" fill="black"/>
<path d="M1060.34 169.655H1017.93V212.069H1060.34V169.655Z" fill="black"/>
<path d="M1102.76 169.655H1060.34V212.069H1102.76V169.655Z" fill="black"/>
<path d="M1145.17 169.655H1102.76V212.069H1145.17V169.655Z" fill="black"/>
<path d="M1230 169.655H1187.59V212.069H1230V169.655Z" fill="black"/>
<path d="M42.4138 212.069H0V254.483H42.4138V212.069Z" fill="black"/>
<path d="M296.897 212.069H254.483V254.483H296.897V212.069Z" fill="black"/>
<path d="M381.724 212.069H339.31V254.483H381.724V212.069Z" fill="black"/>
<path d="M508.966 212.069H466.552V254.483H508.966V212.069Z" fill="black"/>
<path d="M593.793 212.069H551.379V254.483H593.793V212.069Z" fill="black"/>
<path d="M636.207 212.069H593.793V254.483H636.207V212.069Z" fill="black"/>
<path d="M678.621 212.069H636.207V254.483H678.621V212.069Z" fill="black"/>
<path d="M975.517 212.069H933.103V254.483H975.517V212.069Z" fill="black"/>
<path d="M1230 212.069H1187.59V254.483H1230V212.069Z" fill="black"/>
<path d="M42.4138 254.483H0V296.897H42.4138V254.483Z" fill="black"/>
<path d="M84.8276 254.483H42.4138V296.897H84.8276V254.483Z" fill="black"/>
<path d="M127.241 254.483H84.8276V296.897H127.241V254.483Z" fill="black"/>
<path d="M169.655 254.483H127.241V296.897H169.655V254.483Z" fill="black"/>
<path d="M212.069 254.483H169.655V296.897H212.069V254.483Z" fill="black"/>
<path d="M254.483 254.483H212.069V296.897H254.483V254.483Z" fill="black"/>
<path d="M296.897 254.483H254.483V296.897H296.897V254.483Z" fill="black"/>
<path d="M381.724 254.483H339.31V296.897H381.724V254.483Z" fill="black"/>
<path d="M466.552 254.483H424.138V296.897H466.552V254.483Z" fill="black"/>
<path d="M551.379 254.483H508.966V296.897H551.379V254.483Z" fill="black"/>
<path d="M636.207 254.483H593.793V296.897H636.207V254.483Z" fill="black"/>
<path d="M721.034 254.483H678.621V296.897H721.034V254.483Z" fill="black"/>
<path d="M805.862 254.483H763.448V296.897H805.862V254.483Z" fill="black"/>
<path d="M890.69 254.483H848.276V296.897H890.69V254.483Z" fill="black"/>
<path d="M975.517 254.483H933.103V296.897H975.517V254.483Z" fill="black"/>
<path d="M1017.93 254.483H975.517V296.897H1017.93V254.483Z" fill="black"/>
<path d="M1060.34 254.483H1017.93V296.897H1060.34V254.483Z" fill="black"/>
<path d="M1102.76 254.483H1060.34V296.897H1102.76V254.483Z" fill="black"/>
<path d="M1145.17 254.483H1102.76V296.897H1145.17V254.483Z" fill="black"/>
<path d="M1187.59 254.483H1145.17V296.897H1187.59V254.483Z" fill="black"/>
<path d="M1230 254.483H1187.59V296.897H1230V254.483Z" fill="black"/>
<path d="M381.724 296.897H339.31V339.31H381.724V296.897Z" fill="black"/>
<path d="M466.552 296.897H424.138V339.31H466.552V296.897Z" fill="black"/>
<path d="M551.379 296.897H508.966V339.31H551.379V296.897Z" fill="black"/>
<path d="M593.793 296.897H551.379V339.31H593.793V296.897Z" fill="black"/>
<path d="M678.621 296.897H636.207V339.31H678.621V296.897Z" fill="black"/>
<path d="M721.034 296.897H678.621V339.31H721.034V296.897Z" fill="black"/>
<path d="M848.276 296.897H805.862V339.31H848.276V296.897Z" fill="black"/>
<path d="M890.69 296.897H848.276V339.31H890.69V296.897Z" fill="black"/>
<path d="M42.4138 339.31H0V381.724H42.4138V339.31Z" fill="black"/>
<path d="M84.8276 339.31H42.4138V381.724H84.8276V339.31Z" fill="black"/>
<path d="M169.655 339.31H127.241V381.724H169.655V339.31Z" fill="black"/>
<path d="M296.897 339.31H254.483V381.724H296.897V339.31Z" fill="black"/>
<path d="M339.31 339.31H296.897V381.724H339.31V339.31Z" fill="black"/>
<path d="M466.552 339.31H424.138V381.724H466.552V339.31Z" fill="black"/>
<path d="M593.793 339.31H551.379V381.724H593.793V339.31Z" fill="black"/>
<path d="M636.207 339.31H593.793V381.724H636.207V339.31Z" fill="black"/>
<path d="M678.621 339.31H636.207V381.724H678.621V339.31Z" fill="black"/>
<path d="M721.034 339.31H678.621V381.724H721.034V339.31Z" fill="black"/>
<path d="M763.448 339.31H721.034V381.724H763.448V339.31Z" fill="black"/>
<path d="M805.862 339.31H763.448V381.724H805.862V339.31Z" fill="black"/>
<path d="M933.103 339.31H890.69V381.724H933.103V339.31Z" fill="black"/>
<path d="M975.517 339.31H933.103V381.724H975.517V339.31Z" fill="black"/>
<path d="M1017.93 339.31H975.517V381.724H1017.93V339.31Z" fill="black"/>
<path d="M1102.76 339.31H1060.34V381.724H1102.76V339.31Z" fill="black"/>
<path d="M1145.17 339.31H1102.76V381.724H1145.17V339.31Z" fill="black"/>
<path d="M1230 339.31H1187.59V381.724H1230V339.31Z" fill="black"/>
<path d="M42.4138 381.724H0V424.138H42.4138V381.724Z" fill="black"/>
<path d="M84.8276 381.724H42.4138V424.138H84.8276V381.724Z" fill="black"/>
<path d="M127.241 381.724H84.8276V424.138H127.241V381.724Z" fill="black"/>
<path d="M169.655 381.724H127.241V424.138H169.655V381.724Z" fill="black"/>
<path d="M212.069 381.724H169.655V424.138H212.069V381.724Z" fill="black"/>
<path d="M254.483 381.724H212.069V424.138H254.483V381.724Z" fill="black"/>
<path d="M339.31 381.724H296.897V424.138H339.31V381.724Z" fill="black"/>
<path d="M424.138 381.724H381.724V424.138H424.138V381.724Z" fill="black"/>
<path d="M551.379 381.724H508.966V424.138H551.379V381.724Z" fill="black"/>
<path d="M593.793 381.724H551.379V424.138H593.793V381.724Z" fill="black"/>
<path d="M678.621 381.724H636.207V424.138H678.621V381.724Z" fill="black"/>
<path d="M721.034 381.724H678.621V424.138H721.034V381.724Z" fill="black"/>
<path d="M848.276 381.724H805.862V424.138H848.276V381.724Z" fill="black"/>
<path d="M890.69 381.724H848.276V424.138H890.69V381.724Z" fill="black"/>
<path d="M975.517 381.724H933.103V424.138H975.517V381.724Z" fill="black"/>
<path d="M1017.93 381.724H975.517V424.138H1017.93V381.724Z" fill="black"/>
<path d="M1102.76 381.724H1060.34V424.138H1102.76V381.724Z" fill="black"/>
<path d="M1187.59 381.724H1145.17V424.138H1187.59V381.724Z" fill="black"/>
<path d="M169.655 424.138H127.241V466.552H169.655V424.138Z" fill="black"/>
<path d="M212.069 424.138H169.655V466.552H212.069V424.138Z" fill="black"/>
<path d="M296.897 424.138H254.483V466.552H296.897V424.138Z" fill="black"/>
<path d="M339.31 424.138H296.897V466.552H339.31V424.138Z" fill="black"/>
<path d="M381.724 424.138H339.31V466.552H381.724V424.138Z" fill="black"/>
<path d="M424.138 424.138H381.724V466.552H424.138V424.138Z" fill="black"/>
<path d="M551.379 424.138H508.966V466.552H551.379V424.138Z" fill="black"/>
<path d="M636.207 424.138H593.793V466.552H636.207V424.138Z" fill="black"/>
<path d="M721.034 424.138H678.621V466.552H721.034V424.138Z" fill="black"/>
<path d="M763.448 424.138H721.034V466.552H763.448V424.138Z" fill="black"/>
<path d="M805.862 424.138H763.448V466.552H805.862V424.138Z" fill="black"/>
<path d="M848.276 424.138H805.862V466.552H848.276V424.138Z" fill="black"/>
<path d="M890.69 424.138H848.276V466.552H890.69V424.138Z" fill="black"/>
<path d="M975.517 424.138H933.103V466.552H975.517V424.138Z" fill="black"/>
<path d="M1017.93 424.138H975.517V466.552H1017.93V424.138Z" fill="black"/>
<path d="M1060.34 424.138H1017.93V466.552H1060.34V424.138Z" fill="black"/>
<path d="M1102.76 424.138H1060.34V466.552H1102.76V424.138Z" fill="black"/>
<path d="M1187.59 424.138H1145.17V466.552H1187.59V424.138Z" fill="black"/>
<path d="M42.4138 466.552H0V508.966H42.4138V466.552Z" fill="black"/>
<path d="M127.241 466.552H84.8276V508.966H127.241V466.552Z" fill="black"/>
<path d="M169.655 466.552H127.241V508.966H169.655V466.552Z" fill="black"/>
<path d="M212.069 466.552H169.655V508.966H212.069V466.552Z" fill="black"/>
<path d="M339.31 466.552H296.897V508.966H339.31V466.552Z" fill="black"/>
<path d="M381.724 466.552H339.31V508.966H381.724V466.552Z" fill="black"/>
<path d="M424.138 466.552H381.724V508.966H424.138V466.552Z" fill="black"/>
<path d="M466.552 466.552H424.138V508.966H466.552V466.552Z" fill="black"/>
<path d="M636.207 466.552H593.793V508.966H636.207V466.552Z" fill="black"/>
<path d="M721.034 466.552H678.621V508.966H721.034V466.552Z" fill="black"/>
<path d="M763.448 466.552H721.034V508.966H763.448V466.552Z" fill="black"/>
<path d="M975.517 466.552H933.103V508.966H975.517V466.552Z" fill="black"/>
<path d="M1017.93 466.552H975.517V508.966H1017.93V466.552Z" fill="black"/>
<path d="M1145.17 466.552H1102.76V508.966H1145.17V466.552Z" fill="black"/>
<path d="M1187.59 466.552H1145.17V508.966H1187.59V466.552Z" fill="black"/>
<path d="M127.241 508.966H84.8276V551.379H127.241V508.966Z" fill="black"/>
<path d="M296.897 508.966H254.483V551.379H296.897V508.966Z" fill="black"/>
<path d="M339.31 508.966H296.897V551.379H339.31V508.966Z" fill="black"/>
<path d="M424.138 508.966H381.724V551.379H424.138V508.966Z" fill="black"/>
<path d="M508.966 508.966H466.552V551.379H508.966V508.966Z" fill="black"/>
<path d="M551.379 508.966H508.966V551.379H551.379V508.966Z" fill="black"/>
<path d="M593.793 508.966H551.379V551.379H593.793V508.966Z" fill="black"/>
<path d="M721.034 508.966H678.621V551.379H721.034V508.966Z" fill="black"/>
<path d="M805.862 508.966H763.448V551.379H805.862V508.966Z" fill="black"/>
<path d="M933.103 508.966H890.69V551.379H933.103V508.966Z" fill="black"/>
<path d="M975.517 508.966H933.103V551.379H975.517V508.966Z" fill="black"/>
<path d="M1017.93 508.966H975.517V551.379H1017.93V508.966Z" fill="black"/>
<path d="M1145.17 508.966H1102.76V551.379H1145.17V508.966Z" fill="black"/>
<path d="M1187.59 508.966H1145.17V551.379H1187.59V508.966Z" fill="black"/>
<path d="M1230 508.966H1187.59V551.379H1230V508.966Z" fill="black"/>
<path d="M127.241 551.379H84.8276V593.793H127.241V551.379Z" fill="black"/>
<path d="M212.069 551.379H169.655V593.793H212.069V551.379Z" fill="black"/>
<path d="M339.31 551.379H296.897V593.793H339.31V551.379Z" fill="black"/>
<path d="M381.724 551.379H339.31V593.793H381.724V551.379Z" fill="black"/>
<path d="M508.966 551.379H466.552V593.793H508.966V551.379Z" fill="black"/>
<path d="M593.793 551.379H551.379V593.793H593.793V551.379Z" fill="black"/>
<path d="M678.621 551.379H636.207V593.793H678.621V551.379Z" fill="black"/>
<path d="M763.448 551.379H721.034V593.793H763.448V551.379Z" fill="black"/>
<path d="M890.69 551.379H848.276V593.793H890.69V551.379Z" fill="black"/>
<path d="M933.103 551.379H890.69V593.793H933.103V551.379Z" fill="black"/>
<path d="M975.517 551.379H933.103V593.793H975.517V551.379Z" fill="black"/>
<path d="M1145.17 551.379H1102.76V593.793H1145.17V551.379Z" fill="black"/>
<path d="M42.4138 593.793H0V636.207H42.4138V593.793Z" fill="black"/>
<path d="M127.241 593.793H84.8276V636.207H127.241V593.793Z" fill="black"/>
<path d="M212.069 593.793H169.655V636.207H212.069V593.793Z" fill="black"/>
<path d="M254.483 593.793H212.069V636.207H254.483V593.793Z" fill="black"/>
<path d="M296.897 593.793H254.483V636.207H296.897V593.793Z" fill="black"/>
<path d="M339.31 593.793H296.897V636.207H339.31V593.793Z" fill="black"/>
<path d="M381.724 593.793H339.31V636.207H381.724V593.793Z" fill="black"/>
<path d="M466.552 593.793H424.138V636.207H466.552V593.793Z" fill="black"/>
<path d="M508.966 593.793H466.552V636.207H508.966V593.793Z" fill="black"/>
<path d="M636.207 593.793H593.793V636.207H636.207V593.793Z" fill="black"/>
<path d="M933.103 593.793H890.69V636.207H933.103V593.793Z" fill="black"/>
<path d="M1060.34 593.793H1017.93V636.207H1060.34V593.793Z" fill="black"/>
<path d="M1102.76 593.793H1060.34V636.207H1102.76V593.793Z" fill="black"/>
<path d="M1187.59 593.793H1145.17V636.207H1187.59V593.793Z" fill="black"/>
<path d="M1230 593.793H1187.59V636.207H1230V593.793Z" fill="black"/>
<path d="M127.241 636.207H84.8276V678.621H127.241V636.207Z" fill="black"/>
<path d="M169.655 636.207H127.241V678.621H169.655V636.207Z" fill="black"/>
<path d="M212.069 636.207H169.655V678.621H212.069V636.207Z" fill="black"/>
<path d="M339.31 636.207H296.897V678.621H339.31V636.207Z" fill="black"/>
<path d="M381.724 636.207H339.31V678.621H381.724V636.207Z" fill="black"/>
<path d="M508.966 636.207H466.552V678.621H508.966V636.207Z" fill="black"/>
<path d="M551.379 636.207H508.966V678.621H551.379V636.207Z" fill="black"/>
<path d="M593.793 636.207H551.379V678.621H593.793V636.207Z" fill="black"/>
<path d="M721.034 636.207H678.621V678.621H721.034V636.207Z" fill="black"/>
<path d="M763.448 636.207H721.034V678.621H763.448V636.207Z" fill="black"/>
<path d="M805.862 636.207H763.448V678.621H805.862V636.207Z" fill="black"/>
<path d="M1060.34 636.207H1017.93V678.621H1060.34V636.207Z" fill="black"/>
<path d="M1102.76 636.207H1060.34V678.621H1102.76V636.207Z" fill="black"/>
<path d="M42.4138 678.621H0V721.034H42.4138V678.621Z" fill="black"/>
<path d="M127.241 678.621H84.8276V721.034H127.241V678.621Z" fill="black"/>
<path d="M169.655 678.621H127.241V721.034H169.655V678.621Z" fill="black"/>
<path d="M212.069 678.621H169.655V721.034H212.069V678.621Z" fill="black"/>
<path d="M254.483 678.621H212.069V721.034H254.483V678.621Z" fill="black"/>
<path d="M296.897 678.621H254.483V721.034H296.897V678.621Z" fill="black"/>
<path d="M339.31 678.621H296.897V721.034H339.31V678.621Z" fill="black"/>
<path d="M381.724 678.621H339.31V721.034H381.724V678.621Z" fill="black"/>
<path d="M466.552 678.621H424.138V721.034H466.552V678.621Z" fill="black"/>
<path d="M593.793 678.621H551.379V721.034H593.793V678.621Z" fill="black"/>
<path d="M678.621 678.621H636.207V721.034H678.621V678.621Z" fill="black"/>
<path d="M848.276 678.621H805.862V721.034H848.276V678.621Z" fill="black"/>
<path d="M890.69 678.621H848.276V721.034H890.69V678.621Z" fill="black"/>
<path d="M933.103 678.621H890.69V721.034H933.103V678.621Z" fill="black"/>
<path d="M1060.34 678.621H1017.93V721.034H1060.34V678.621Z" fill="black"/>
<path d="M1102.76 678.621H1060.34V721.034H1102.76V678.621Z" fill="black"/>
<path d="M1230 678.621H1187.59V721.034H1230V678.621Z" fill="black"/>
<path d="M169.655 721.034H127.241V763.448H169.655V721.034Z" fill="black"/>
<path d="M254.483 721.034H212.069V763.448H254.483V721.034Z" fill="black"/>
<path d="M339.31 721.034H296.897V763.448H339.31V721.034Z" fill="black"/>
<path d="M381.724 721.034H339.31V763.448H381.724V721.034Z" fill="black"/>
<path d="M424.138 721.034H381.724V763.448H424.138V721.034Z" fill="black"/>
<path d="M466.552 721.034H424.138V763.448H466.552V721.034Z" fill="black"/>
<path d="M551.379 721.034H508.966V763.448H551.379V721.034Z" fill="black"/>
<path d="M636.207 721.034H593.793V763.448H636.207V721.034Z" fill="black"/>
<path d="M805.862 721.034H763.448V763.448H805.862V721.034Z" fill="black"/>
<path d="M848.276 721.034H805.862V763.448H848.276V721.034Z" fill="black"/>
<path d="M890.69 721.034H848.276V763.448H890.69V721.034Z" fill="black"/>
<path d="M933.103 721.034H890.69V763.448H933.103V721.034Z" fill="black"/>
<path d="M975.517 721.034H933.103V763.448H975.517V721.034Z" fill="black"/>
<path d="M1060.34 721.034H1017.93V763.448H1060.34V721.034Z" fill="black"/>
<path d="M1102.76 721.034H1060.34V763.448H1102.76V721.034Z" fill="black"/>
<path d="M1145.17 721.034H1102.76V763.448H1145.17V721.034Z" fill="black"/>
<path d="M42.4138 763.448H0V805.862H42.4138V763.448Z" fill="black"/>
<path d="M127.241 763.448H84.8276V805.862H127.241V763.448Z" fill="black"/>
<path d="M254.483 763.448H212.069V805.862H254.483V763.448Z" fill="black"/>
<path d="M296.897 763.448H254.483V805.862H296.897V763.448Z" fill="black"/>
<path d="M339.31 763.448H296.897V805.862H339.31V763.448Z" fill="black"/>
<path d="M381.724 763.448H339.31V805.862H381.724V763.448Z" fill="black"/>
<path d="M424.138 763.448H381.724V805.862H424.138V763.448Z" fill="black"/>
<path d="M466.552 763.448H424.138V805.862H466.552V763.448Z" fill="black"/>
<path d="M508.966 763.448H466.552V805.862H508.966V763.448Z" fill="black"/>
<path d="M551.379 763.448H508.966V805.862H551.379V763.448Z" fill="black"/>
<path d="M636.207 763.448H593.793V805.862H636.207V763.448Z" fill="black"/>
<path d="M721.034 763.448H678.621V805.862H721.034V763.448Z" fill="black"/>
<path d="M890.69 763.448H848.276V805.862H890.69V763.448Z" fill="black"/>
<path d="M933.103 763.448H890.69V805.862H933.103V763.448Z" fill="black"/>
<path d="M1017.93 763.448H975.517V805.862H1017.93V763.448Z" fill="black"/>
<path d="M1102.76 763.448H1060.34V805.862H1102.76V763.448Z" fill="black"/>
<path d="M1187.59 763.448H1145.17V805.862H1187.59V763.448Z" fill="black"/>
<path d="M1230 763.448H1187.59V805.862H1230V763.448Z" fill="black"/>
<path d="M42.4138 805.862H0V848.276H42.4138V805.862Z" fill="black"/>
<path d="M169.655 805.862H127.241V848.276H169.655V805.862Z" fill="black"/>
<path d="M212.069 805.862H169.655V848.276H212.069V805.862Z" fill="black"/>
<path d="M254.483 805.862H212.069V848.276H254.483V805.862Z" fill="black"/>
<path d="M424.138 805.862H381.724V848.276H424.138V805.862Z" fill="black"/>
<path d="M508.966 805.862H466.552V848.276H508.966V805.862Z" fill="black"/>
<path d="M593.793 805.862H551.379V848.276H593.793V805.862Z" fill="black"/>
<path d="M636.207 805.862H593.793V848.276H636.207V805.862Z" fill="black"/>
<path d="M678.621 805.862H636.207V848.276H678.621V805.862Z" fill="black"/>
<path d="M848.276 805.862H805.862V848.276H848.276V805.862Z" fill="black"/>
<path d="M890.69 805.862H848.276V848.276H890.69V805.862Z" fill="black"/>
<path d="M975.517 805.862H933.103V848.276H975.517V805.862Z" fill="black"/>
<path d="M1102.76 805.862H1060.34V848.276H1102.76V805.862Z" fill="black"/>
<path d="M1145.17 805.862H1102.76V848.276H1145.17V805.862Z" fill="black"/>
<path d="M1230 805.862H1187.59V848.276H1230V805.862Z" fill="black"/>
<path d="M42.4138 848.276H0V890.69H42.4138V848.276Z" fill="black"/>
<path d="M84.8276 848.276H42.4138V890.69H84.8276V848.276Z" fill="black"/>
<path d="M127.241 848.276H84.8276V890.69H127.241V848.276Z" fill="black"/>
<path d="M212.069 848.276H169.655V890.69H212.069V848.276Z" fill="black"/>
<path d="M254.483 848.276H212.069V890.69H254.483V848.276Z" fill="black"/>
<path d="M296.897 848.276H254.483V890.69H296.897V848.276Z" fill="black"/>
<path d="M424.138 848.276H381.724V890.69H424.138V848.276Z" fill="black"/>
<path d="M763.448 848.276H721.034V890.69H763.448V848.276Z" fill="black"/>
<path d="M805.862 848.276H763.448V890.69H805.862V848.276Z" fill="black"/>
<path d="M890.69 848.276H848.276V890.69H890.69V848.276Z" fill="black"/>
<path d="M933.103 848.276H890.69V890.69H933.103V848.276Z" fill="black"/>
<path d="M975.517 848.276H933.103V890.69H975.517V848.276Z" fill="black"/>
<path d="M1017.93 848.276H975.517V890.69H1017.93V848.276Z" fill="black"/>
<path d="M1060.34 848.276H1017.93V890.69H1060.34V848.276Z" fill="black"/>
<path d="M1102.76 848.276H1060.34V890.69H1102.76V848.276Z" fill="black"/>
<path d="M1187.59 848.276H1145.17V890.69H1187.59V848.276Z" fill="black"/>
<path d="M1230 848.276H1187.59V890.69H1230V848.276Z" fill="black"/>
<path d="M424.138 890.69H381.724V933.103H424.138V890.69Z" fill="black"/>
<path d="M508.966 890.69H466.552V933.103H508.966V890.69Z" fill="black"/>
<path d="M636.207 890.69H593.793V933.103H636.207V890.69Z" fill="black"/>
<path d="M678.621 890.69H636.207V933.103H678.621V890.69Z" fill="black"/>
<path d="M721.034 890.69H678.621V933.103H721.034V890.69Z" fill="black"/>
<path d="M763.448 890.69H721.034V933.103H763.448V890.69Z" fill="black"/>
<path d="M805.862 890.69H763.448V933.103H805.862V890.69Z" fill="black"/>
<path d="M848.276 890.69H805.862V933.103H848.276V890.69Z" fill="black"/>
<path d="M890.69 890.69H848.276V933.103H890.69V890.69Z" fill="black"/>
<path d="M1060.34 890.69H1017.93V933.103H1060.34V890.69Z" fill="black"/>
<path d="M1102.76 890.69H1060.34V933.103H1102.76V890.69Z" fill="black"/>
<path d="M1145.17 890.69H1102.76V933.103H1145.17V890.69Z" fill="black"/>
<path d="M42.4138 933.103H0V975.517H42.4138V933.103Z" fill="black"/>
<path d="M84.8276 933.103H42.4138V975.517H84.8276V933.103Z" fill="black"/>
<path d="M127.241 933.103H84.8276V975.517H127.241V933.103Z" fill="black"/>
<path d="M169.655 933.103H127.241V975.517H169.655V933.103Z" fill="black"/>
<path d="M212.069 933.103H169.655V975.517H212.069V933.103Z" fill="black"/>
<path d="M254.483 933.103H212.069V975.517H254.483V933.103Z" fill="black"/>
<path d="M296.897 933.103H254.483V975.517H296.897V933.103Z" fill="black"/>
<path d="M381.724 933.103H339.31V975.517H381.724V933.103Z" fill="black"/>
<path d="M424.138 933.103H381.724V975.517H424.138V933.103Z" fill="black"/>
<path d="M466.552 933.103H424.138V975.517H466.552V933.103Z" fill="black"/>
<path d="M508.966 933.103H466.552V975.517H508.966V933.103Z" fill="black"/>
<path d="M593.793 933.103H551.379V975.517H593.793V933.103Z" fill="black"/>
<path d="M678.621 933.103H636.207V975.517H678.621V933.103Z" fill="black"/>
<path d="M848.276 933.103H805.862V975.517H848.276V933.103Z" fill="black"/>
<path d="M890.69 933.103H848.276V975.517H890.69V933.103Z" fill="black"/>
<path d="M975.517 933.103H933.103V975.517H975.517V933.103Z" fill="black"/>
<path d="M1060.34 933.103H1017.93V975.517H1060.34V933.103Z" fill="black"/>
<path d="M42.4138 975.517H0V1017.93H42.4138V975.517Z" fill="black"/>
<path d="M296.897 975.517H254.483V1017.93H296.897V975.517Z" fill="black"/>
<path d="M424.138 975.517H381.724V1017.93H424.138V975.517Z" fill="black"/>
<path d="M466.552 975.517H424.138V1017.93H466.552V975.517Z" fill="black"/>
<path d="M508.966 975.517H466.552V1017.93H508.966V975.517Z" fill="black"/>
<path d="M593.793 975.517H551.379V1017.93H593.793V975.517Z" fill="black"/>
<path d="M636.207 975.517H593.793V1017.93H636.207V975.517Z" fill="black"/>
<path d="M678.621 975.517H636.207V1017.93H678.621V975.517Z" fill="black"/>
<path d="M763.448 975.517H721.034V1017.93H763.448V975.517Z" fill="black"/>
<path d="M805.862 975.517H763.448V1017.93H805.862V975.517Z" fill="black"/>
<path d="M890.69 975.517H848.276V1017.93H890.69V975.517Z" fill="black"/>
<path d="M1060.34 975.517H1017.93V1017.93H1060.34V975.517Z" fill="black"/>
<path d="M1145.17 975.517H1102.76V1017.93H1145.17V975.517Z" fill="black"/>
<path d="M1187.59 975.517H1145.17V1017.93H1187.59V975.517Z" fill="black"/>
<path d="M42.4138 1017.93H0V1060.34H42.4138V1017.93Z" fill="black"/>
<path d="M127.241 1017.93H84.8276V1060.34H127.241V1017.93Z" fill="black"/>
<path d="M169.655 1017.93H127.241V1060.34H169.655V1017.93Z" fill="black"/>
<path d="M212.069 1017.93H169.655V1060.34H212.069V1017.93Z" fill="black"/>
<path d="M296.897 1017.93H254.483V1060.34H296.897V1017.93Z" fill="black"/>
<path d="M424.138 1017.93H381.724V1060.34H424.138V1017.93Z" fill="black"/>
<path d="M466.552 1017.93H424.138V1060.34H466.552V1017.93Z" fill="black"/>
<path d="M508.966 1017.93H466.552V1060.34H508.966V1017.93Z" fill="black"/>
<path d="M636.207 1017.93H593.793V1060.34H636.207V1017.93Z" fill="black"/>
<path d="M678.621 1017.93H636.207V1060.34H678.621V1017.93Z" fill="black"/>
<path d="M721.034 1017.93H678.621V1060.34H721.034V1017.93Z" fill="black"/>
<path d="M890.69 1017.93H848.276V1060.34H890.69V1017.93Z" fill="black"/>
<path d="M933.103 1017.93H890.69V1060.34H933.103V1017.93Z" fill="black"/>
<path d="M975.517 1017.93H933.103V1060.34H975.517V1017.93Z" fill="black"/>
<path d="M1017.93 1017.93H975.517V1060.34H1017.93V1017.93Z" fill="black"/>
<path d="M1060.34 1017.93H1017.93V1060.34H1060.34V1017.93Z" fill="black"/>
<path d="M1102.76 1017.93H1060.34V1060.34H1102.76V1017.93Z" fill="black"/>
<path d="M42.4138 1060.34H0V1102.76H42.4138V1060.34Z" fill="black"/>
<path d="M127.241 1060.34H84.8276V1102.76H127.241V1060.34Z" fill="black"/>
<path d="M169.655 1060.34H127.241V1102.76H169.655V1060.34Z" fill="black"/>
<path d="M212.069 1060.34H169.655V1102.76H212.069V1060.34Z" fill="black"/>
<path d="M296.897 1060.34H254.483V1102.76H296.897V1060.34Z" fill="black"/>
<path d="M381.724 1060.34H339.31V1102.76H381.724V1060.34Z" fill="black"/>
<path d="M551.379 1060.34H508.966V1102.76H551.379V1060.34Z" fill="black"/>
<path d="M721.034 1060.34H678.621V1102.76H721.034V1060.34Z" fill="black"/>
<path d="M763.448 1060.34H721.034V1102.76H763.448V1060.34Z" fill="black"/>
<path d="M890.69 1060.34H848.276V1102.76H890.69V1060.34Z" fill="black"/>
<path d="M933.103 1060.34H890.69V1102.76H933.103V1060.34Z" fill="black"/>
<path d="M975.517 1060.34H933.103V1102.76H975.517V1060.34Z" fill="black"/>
<path d="M1017.93 1060.34H975.517V1102.76H1017.93V1060.34Z" fill="black"/>
<path d="M1102.76 1060.34H1060.34V1102.76H1102.76V1060.34Z" fill="black"/>
<path d="M1187.59 1060.34H1145.17V1102.76H1187.59V1060.34Z" fill="black"/>
<path d="M1230 1060.34H1187.59V1102.76H1230V1060.34Z" fill="black"/>
<path d="M42.4138 1102.76H0V1145.17H42.4138V1102.76Z" fill="black"/>
<path d="M127.241 1102.76H84.8276V1145.17H127.241V1102.76Z" fill="black"/>
<path d="M169.655 1102.76H127.241V1145.17H169.655V1102.76Z" fill="black"/>
<path d="M212.069 1102.76H169.655V1145.17H212.069V1102.76Z" fill="black"/>
<path d="M296.897 1102.76H254.483V1145.17H296.897V1102.76Z" fill="black"/>
<path d="M466.552 1102.76H424.138V1145.17H466.552V1102.76Z" fill="black"/>
<path d="M551.379 1102.76H508.966V1145.17H551.379V1102.76Z" fill="black"/>
<path d="M593.793 1102.76H551.379V1145.17H593.793V1102.76Z" fill="black"/>
<path d="M636.207 1102.76H593.793V1145.17H636.207V1102.76Z" fill="black"/>
<path d="M763.448 1102.76H721.034V1145.17H763.448V1102.76Z" fill="black"/>
<path d="M805.862 1102.76H763.448V1145.17H805.862V1102.76Z" fill="black"/>
<path d="M848.276 1102.76H805.862V1145.17H848.276V1102.76Z" fill="black"/>
<path d="M890.69 1102.76H848.276V1145.17H890.69V1102.76Z" fill="black"/>
<path d="M933.103 1102.76H890.69V1145.17H933.103V1102.76Z" fill="black"/>
<path d="M1060.34 1102.76H1017.93V1145.17H1060.34V1102.76Z" fill="black"/>
<path d="M1145.17 1102.76H1102.76V1145.17H1145.17V1102.76Z" fill="black"/>
<path d="M42.4138 1145.17H0V1187.59H42.4138V1145.17Z" fill="black"/>
<path d="M296.897 1145.17H254.483V1187.59H296.897V1145.17Z" fill="black"/>
<path d="M381.724 1145.17H339.31V1187.59H381.724V1145.17Z" fill="black"/>
<path d="M466.552 1145.17H424.138V1187.59H466.552V1145.17Z" fill="black"/>
<path d="M593.793 1145.17H551.379V1187.59H593.793V1145.17Z" fill="black"/>
<path d="M636.207 1145.17H593.793V1187.59H636.207V1145.17Z" fill="black"/>
<path d="M678.621 1145.17H636.207V1187.59H678.621V1145.17Z" fill="black"/>
<path d="M721.034 1145.17H678.621V1187.59H721.034V1145.17Z" fill="black"/>
<path d="M763.448 1145.17H721.034V1187.59H763.448V1145.17Z" fill="black"/>
<path d="M933.103 1145.17H890.69V1187.59H933.103V1145.17Z" fill="black"/>
<path d="M975.517 1145.17H933.103V1187.59H975.517V1145.17Z" fill="black"/>
<path d="M1017.93 1145.17H975.517V1187.59H1017.93V1145.17Z" fill="black"/>
<path d="M1187.59 1145.17H1145.17V1187.59H1187.59V1145.17Z" fill="black"/>
<path d="M1230 1145.17H1187.59V1187.59H1230V1145.17Z" fill="black"/>
<path d="M42.4138 1187.59H0V1230H42.4138V1187.59Z" fill="black"/>
<path d="M84.8276 1187.59H42.4138V1230H84.8276V1187.59Z" fill="black"/>
<path d="M127.241 1187.59H84.8276V1230H127.241V1187.59Z" fill="black"/>
<path d="M169.655 1187.59H127.241V1230H169.655V1187.59Z" fill="black"/>
<path d="M212.069 1187.59H169.655V1230H212.069V1187.59Z" fill="black"/>
<path d="M254.483 1187.59H212.069V1230H254.483V1187.59Z" fill="black"/>
<path d="M296.897 1187.59H254.483V1230H296.897V1187.59Z" fill="black"/>
<path d="M381.724 1187.59H339.31V1230H381.724V1187.59Z" fill="black"/>
<path d="M424.138 1187.59H381.724V1230H424.138V1187.59Z" fill="black"/>
<path d="M508.966 1187.59H466.552V1230H508.966V1187.59Z" fill="black"/>
<path d="M593.793 1187.59H551.379V1230H593.793V1187.59Z" fill="black"/>
<path d="M636.207 1187.59H593.793V1230H636.207V1187.59Z" fill="black"/>
<path d="M933.103 1187.59H890.69V1230H933.103V1187.59Z" fill="black"/>
<path d="M1017.93 1187.59H975.517V1230H1017.93V1187.59Z" fill="black"/>
<path d="M1102.76 1187.59H1060.34V1230H1102.76V1187.59Z" fill="black"/>
<path d="M1145.17 1187.59H1102.76V1230H1145.17V1187.59Z" fill="black"/>
</svg>
