<svg width="355" height="355" viewBox="0 0 355 355" fill="none" xmlns="http://www.w3.org/2000/svg">
<path d="M12.2414 0H0V12.2414H12.2414V0Z" fill="black"/>
<path d="M24.4828 0H12.2414V12.2414H24.4828V0Z" fill="black"/>
<path d="M36.7241 0H24.4828V12.2414H36.7241V0Z" fill="black"/>
<path d="M48.9655 0H36.7241V12.2414H48.9655V0Z" fill="black"/>
<path d="M61.2069 0H48.9655V12.2414H61.2069V0Z" fill="black"/>
<path d="M73.4483 0H61.2069V12.2414H73.4483V0Z" fill="black"/>
<path d="M85.6897 0H73.4483V12.2414H85.6897V0Z" fill="black"/>
<path d="M110.172 0H97.931V12.2414H110.172V0Z" fill="black"/>
<path d="M159.138 0H146.897V12.2414H159.138V0Z" fill="black"/>
<path d="M195.862 0H183.621V12.2414H195.862V0Z" fill="black"/>
<path d="M220.345 0H208.103V12.2414H220.345V0Z" fill="black"/>
<path d="M232.586 0H220.345V12.2414H232.586V0Z" fill="black"/>
<path d="M244.828 0H232.586V12.2414H244.828V0Z" fill="black"/>
<path d="M257.069 0H244.828V12.2414H257.069V0Z" fill="black"/>
<path d="M281.552 0H269.31V12.2414H281.552V0Z" fill="black"/>
<path d="M293.793 0H281.552V12.2414H293.793V0Z" fill="black"/>
<path d="M306.034 0H293.793V12.2414H306.034V0Z" fill="black"/>
<path d="M318.276 0H306.034V12.2414H318.276V0Z" fill="black"/>
<path d="M330.517 0H318.276V12.2414H330.517V0Z" fill="black"/>
<path d="M342.759 0H330.517V12.2414H342.759V0Z" fill="black"/>
<path d="M355 0H342.759V12.2414H355V0Z" fill="black"/>
<path d="M12.2414 12.2414H0V24.4828H12.2414V12.2414Z" fill="black"/>
<path d="M85.6897 12.2414H73.4483V24.4828H85.6897V12.2414Z" fill="black"/>
<path d="M122.414 12.2414H110.172V24.4828H122.414V12.2414Z" fill="black"/>
<path d="M134.655 12.2414H122.414V24.4828H134.655V12.2414Z" fill="black"/>
<path d="M183.621 12.2414H171.379V24.4828H183.621V12.2414Z" fill="black"/>
<path d="M232.586 12.2414H220.345V24.4828H232.586V12.2414Z" fill="black"/>
<path d="M244.828 12.2414H232.586V24.4828H244.828V12.2414Z" fill="black"/>
<path d="M257.069 12.2414H244.828V24.4828H257.069V12.2414Z" fill="black"/>
<path d="M281.552 12.2414H269.31V24.4828H281.552V12.2414Z" fill="black"/>
<path d="M355 12.2414H342.759V24.4828H355V12.2414Z" fill="black"/>
<path d="M12.2414 24.4828H0V36.7241H12.2414V24.4828Z" fill="black"/>
<path d="M36.7241 24.4828H24.4828V36.7241H36.7241V24.4828Z" fill="black"/>
<path d="M48.9655 24.4828H36.7241V36.7241H48.9655V24.4828Z" fill="black"/>
<path d="M61.2069 24.4828H48.9655V36.7241H61.2069V24.4828Z" fill="black"/>
<path d="M85.6897 24.4828H73.4483V36.7241H85.6897V24.4828Z" fill="black"/>
<path d="M122.414 24.4828H110.172V36.7241H122.414V24.4828Z" fill="black"/>
<path d="M134.655 24.4828H122.414V36.7241H134.655V24.4828Z" fill="black"/>
<path d="M183.621 24.4828H171.379V36.7241H183.621V24.4828Z" fill="black"/>
<path d="M195.862 24.4828H183.621V36.7241H195.862V24.4828Z" fill="black"/>
<path d="M208.103 24.4828H195.862V36.7241H208.103V24.4828Z" fill="black"/>
<path d="M220.345 24.4828H208.103V36.7241H220.345V24.4828Z" fill="black"/>
<path d="M232.586 24.4828H220.345V36.7241H232.586V24.4828Z" fill="black"/>
<path d="M244.828 24.4828H232.586V36.7241H244.828V24.4828Z" fill="black"/>
<path d="M281.552 24.4828H269.31V36.7241H281.552V24.4828Z" fill="black"/>
<path d="M306.034 24.4828H293.793V36.7241H306.034V24.4828Z" fill="black"/>
<path d="M318.276 24.4828H306.034V36.7241H318.276V24.4828Z" fill="black"/>
<path d="M330.517 24.4828H318.276V36.7241H330.517V24.4828Z" fill="black"/>
<path d="M355 24.4828H342.759V36.7241H355V24.4828Z" fill="black"/>
<path d="M12.2414 36.7241H0V48.9655H12.2414V36.7241Z" fill="black"/>
<path d="M36.7241 36.7241H24.4828V48.9655H36.7241V36.7241Z" fill="black"/>
<path d="M48.9655 36.7241H36.7241V48.9655H48.9655V36.7241Z" fill="black"/>
<path d="M61.2069 36.7241H48.9655V48.9655H61.2069V36.7241Z" fill="black"/>
<path d="M85.6897 36.7241H73.4483V48.9655H85.6897V36.7241Z" fill="black"/>
<path d="M110.172 36.7241H97.931V48.9655H110.172V36.7241Z" fill="black"/>
<path d="M134.655 36.7241H122.414V48.9655H134.655V36.7241Z" fill="black"/>
<path d="M171.379 36.7241H159.138V48.9655H171.379V36.7241Z" fill="black"/>
<path d="M244.828 36.7241H232.586V48.9655H244.828V36.7241Z" fill="black"/>
<path d="M257.069 36.7241H244.828V48.9655H257.069V36.7241Z" fill="black"/>
<path d="M281.552 36.7241H269.31V48.9655H281.552V36.7241Z" fill="black"/>
<path d="M306.034 36.7241H293.793V48.9655H306.034V36.7241Z" fill="black"/>
<path d="M318.276 36.7241H306.034V48.9655H318.276V36.7241Z" fill="black"/>
<path d="M330.517 36.7241H318.276V48.9655H330.517V36.7241Z" fill="black"/>
<path d="M355 36.7241H342.759V48.9655H355V36.7241Z" fill="black"/>
<path d="M12.2414 48.9655H0V61.2069H12.2414V48.9655Z" fill="black"/>
<path d="M36.7241 48.9655H24.4828V61.2069H36.7241V48.9655Z" fill="black"/>
<path d="M48.9655 48.9655H36.7241V61.2069H48.9655V48.9655Z" fill="black"/>
<path d="M61.2069 48.9655H48.9655V61.2069H61.2069V48.9655Z" fill="black"/>
<path d="M85.6897 48.9655H73.4483V61.2069H85.6897V48.9655Z" fill="black"/>
<path d="M110.172 48.9655H97.931V61.2069H110.172V48.9655Z" fill="black"/>
<path d="M134.655 48.9655H122.414V61.2069H134.655V48.9655Z" fill="black"/>
<path d="M171.379 48.9655H159.138V61.2069H171.379V48.9655Z" fill="black"/>
<path d="M183.621 48.9655H171.379V61.2069H183.621V48.9655Z" fill="black"/>
<path d="M208.103 48.9655H195.862V61.2069H208.103V48.9655Z" fill="black"/>
<path d="M220.345 48.9655H208.103V61.2069H220.345V48.9655Z" fill="black"/>
<path d="M232.586 48.9655H220.345V61.2069H232.586V48.9655Z" fill="black"/>
<path d="M244.828 48.9655H232.586V61.2069H244.828V48.9655Z" fill="black"/>
<path d="M257.069 48.9655H244.828V61.2069H257.069V48.9655Z" fill="black"/>
<path d="M281.552 48.9655H269.31V61.2069H281.552V48.9655Z" fill="black"/>
<path d="M306.034 48.9655H293.793V61.2069H306.034V48.9655Z" fill="black"/>
<path d="M318.276 48.9655H306.034V61.2069H318.276V48.9655Z" fill="black"/>
<path d="M330.517 48.9655H318.276V61.2069H330.517V48.9655Z" fill="black"/>
<path d="M355 48.9655H342.759V61.2069H355V48.9655Z" fill="black"/>
<path d="M12.2414 61.2069H0V73.4483H12.2414V61.2069Z" fill="black"/>
<path d="M85.6897 61.2069H73.4483V73.4483H85.6897V61.2069Z" fill="black"/>
<path d="M110.172 61.2069H97.931V73.4483H110.172V61.2069Z" fill="black"/>
<path d="M122.414 61.2069H110.172V73.4483H122.414V61.2069Z" fill="black"/>
<path d="M220.345 61.2069H208.103V73.4483H220.345V61.2069Z" fill="black"/>
<path d="M281.552 61.2069H269.31V73.4483H281.552V61.2069Z" fill="black"/>
<path d="M355 61.2069H342.759V73.4483H355V61.2069Z" fill="black"/>
<path d="M12.2414 73.4483H0V85.6897H12.2414V73.4483Z" fill="black"/>
<path d="M24.4828 73.4483H12.2414V85.6897H24.4828V73.4483Z" fill="black"/>
<path d="M36.7241 73.4483H24.4828V85.6897H36.7241V73.4483Z" fill="black"/>
<path d="M48.9655 73.4483H36.7241V85.6897H48.9655V73.4483Z" fill="black"/>
<path d="M61.2069 73.4483H48.9655V85.6897H61.2069V73.4483Z" fill="black"/>
<path d="M73.4483 73.4483H61.2069V85.6897H73.4483V73.4483Z" fill="black"/>
<path d="M85.6897 73.4483H73.4483V85.6897H85.6897V73.4483Z" fill="black"/>
<path d="M110.172 73.4483H97.931V85.6897H110.172V73.4483Z" fill="black"/>
<path d="M134.655 73.4483H122.414V85.6897H134.655V73.4483Z" fill="black"/>
<path d="M159.138 73.4483H146.897V85.6897H159.138V73.4483Z" fill="black"/>
<path d="M183.621 73.4483H171.379V85.6897H183.621V73.4483Z" fill="black"/>
<path d="M208.103 73.4483H195.862V85.6897H208.103V73.4483Z" fill="black"/>
<path d="M232.586 73.4483H220.345V85.6897H232.586V73.4483Z" fill="black"/>
<path d="M257.069 73.4483H244.828V85.6897H257.069V73.4483Z" fill="black"/>
<path d="M281.552 73.4483H269.31V85.6897H281.552V73.4483Z" fill="black"/>
<path d="M293.793 73.4483H281.552V85.6897H293.793V73.4483Z" fill="black"/>
<path d="M306.034 73.4483H293.793V85.6897H306.034V73.4483Z" fill="black"/>
<path d="M318.276 73.4483H306.034V85.6897H318.276V73.4483Z" fill="black"/>
<path d="M330.517 73.4483H318.276V85.6897H330.517V73.4483Z" fill="black"/>
<path d="M342.759 73.4483H330.517V85.6897H342.759V73.4483Z" fill="black"/>
<path d="M355 73.4483H342.759V85.6897H355V73.4483Z" fill="black"/>
<path d="M110.172 85.6897H97.931V97.931H110.172V85.6897Z" fill="black"/>
<path d="M122.414 85.6897H110.172V97.931H122.414V85.6897Z" fill="black"/>
<path d="M171.379 85.6897H159.138V97.931H171.379V85.6897Z" fill="black"/>
<path d="M195.862 85.6897H183.621V97.931H195.862V85.6897Z" fill="black"/>
<path d="M244.828 85.6897H232.586V97.931H244.828V85.6897Z" fill="black"/>
<path d="M12.2414 97.931H0V110.172H12.2414V97.931Z" fill="black"/>
<path d="M24.4828 97.931H12.2414V110.172H24.4828V97.931Z" fill="black"/>
<path d="M36.7241 97.931H24.4828V110.172H36.7241V97.931Z" fill="black"/>
<path d="M61.2069 97.931H48.9655V110.172H61.2069V97.931Z" fill="black"/>
<path d="M85.6897 97.931H73.4483V110.172H85.6897V97.931Z" fill="black"/>
<path d="M110.172 97.931H97.931V110.172H110.172V97.931Z" fill="black"/>
<path d="M159.138 97.931H146.897V110.172H159.138V97.931Z" fill="black"/>
<path d="M244.828 97.931H232.586V110.172H244.828V97.931Z" fill="black"/>
<path d="M269.31 97.931H257.069V110.172H269.31V97.931Z" fill="black"/>
<path d="M281.552 97.931H269.31V110.172H281.552V97.931Z" fill="black"/>
<path d="M293.793 97.931H281.552V110.172H293.793V97.931Z" fill="black"/>
<path d="M306.034 97.931H293.793V110.172H306.034V97.931Z" fill="black"/>
<path d="M318.276 97.931H306.034V110.172H318.276V97.931Z" fill="black"/>
<path d="M355 97.931H342.759V110.172H355V97.931Z" fill="black"/>
<path d="M24.4828 110.172H12.2414V122.414H24.4828V110.172Z" fill="black"/>
<path d="M48.9655 110.172H36.7241V122.414H48.9655V110.172Z" fill="black"/>
<path d="M73.4483 110.172H61.2069V122.414H73.4483V110.172Z" fill="black"/>
<path d="M122.414 110.172H110.172V122.414H122.414V110.172Z" fill="black"/>
<path d="M159.138 110.172H146.897V122.414H159.138V110.172Z" fill="black"/>
<path d="M195.862 110.172H183.621V122.414H195.862V110.172Z" fill="black"/>
<path d="M208.103 110.172H195.862V122.414H208.103V110.172Z" fill="black"/>
<path d="M244.828 110.172H232.586V122.414H244.828V110.172Z" fill="black"/>
<path d="M257.069 110.172H244.828V122.414H257.069V110.172Z" fill="black"/>
<path d="M306.034 110.172H293.793V122.414H306.034V110.172Z" fill="black"/>
<path d="M318.276 110.172H306.034V122.414H318.276V110.172Z" fill="black"/>
<path d="M355 110.172H342.759V122.414H355V110.172Z" fill="black"/>
<path d="M48.9655 122.414H36.7241V134.655H48.9655V122.414Z" fill="black"/>
<path d="M61.2069 122.414H48.9655V134.655H61.2069V122.414Z" fill="black"/>
<path d="M73.4483 122.414H61.2069V134.655H73.4483V122.414Z" fill="black"/>
<path d="M85.6897 122.414H73.4483V134.655H85.6897V122.414Z" fill="black"/>
<path d="M110.172 122.414H97.931V134.655H110.172V122.414Z" fill="black"/>
<path d="M122.414 122.414H110.172V134.655H122.414V122.414Z" fill="black"/>
<path d="M146.897 122.414H134.655V134.655H146.897V122.414Z" fill="black"/>
<path d="M171.379 122.414H159.138V134.655H171.379V122.414Z" fill="black"/>
<path d="M183.621 122.414H171.379V134.655H183.621V122.414Z" fill="black"/>
<path d="M208.103 122.414H195.862V134.655H208.103V122.414Z" fill="black"/>
<path d="M220.345 122.414H208.103V134.655H220.345V122.414Z" fill="black"/>
<path d="M257.069 122.414H244.828V134.655H257.069V122.414Z" fill="black"/>
<path d="M269.31 122.414H257.069V134.655H269.31V122.414Z" fill="black"/>
<path d="M330.517 122.414H318.276V134.655H330.517V122.414Z" fill="black"/>
<path d="M355 122.414H342.759V134.655H355V122.414Z" fill="black"/>
<path d="M24.4828 134.655H12.2414V146.897H24.4828V134.655Z" fill="black"/>
<path d="M48.9655 134.655H36.7241V146.897H48.9655V134.655Z" fill="black"/>
<path d="M73.4483 134.655H61.2069V146.897H73.4483V134.655Z" fill="black"/>
<path d="M97.931 134.655H85.6897V146.897H97.931V134.655Z" fill="black"/>
<path d="M122.414 134.655H110.172V146.897H122.414V134.655Z" fill="black"/>
<path d="M134.655 134.655H122.414V146.897H134.655V134.655Z" fill="black"/>
<path d="M146.897 134.655H134.655V146.897H146.897V134.655Z" fill="black"/>
<path d="M159.138 134.655H146.897V146.897H159.138V134.655Z" fill="black"/>
<path d="M183.621 134.655H171.379V146.897H183.621V134.655Z" fill="black"/>
<path d="M195.862 134.655H183.621V146.897H195.862V134.655Z" fill="black"/>
<path d="M208.103 134.655H195.862V146.897H208.103V134.655Z" fill="black"/>
<path d="M269.31 134.655H257.069V146.897H269.31V134.655Z" fill="black"/>
<path d="M281.552 134.655H269.31V146.897H281.552V134.655Z" fill="black"/>
<path d="M293.793 134.655H281.552V146.897H293.793V134.655Z" fill="black"/>
<path d="M330.517 134.655H318.276V146.897H330.517V134.655Z" fill="black"/>
<path d="M342.759 134.655H330.517V146.897H342.759V134.655Z" fill="black"/>
<path d="M12.2414 146.897H0V159.138H12.2414V146.897Z" fill="black"/>
<path d="M48.9655 146.897H36.7241V159.138H48.9655V146.897Z" fill="black"/>
<path d="M61.2069 146.897H48.9655V159.138H61.2069V146.897Z" fill="black"/>
<path d="M73.4483 146.897H61.2069V159.138H73.4483V146.897Z" fill="black"/>
<path d="M85.6897 146.897H73.4483V159.138H85.6897V146.897Z" fill="black"/>
<path d="M97.931 146.897H85.6897V159.138H97.931V146.897Z" fill="black"/>
<path d="M110.172 146.897H97.931V159.138H110.172V146.897Z" fill="black"/>
<path d="M134.655 146.897H122.414V159.138H134.655V146.897Z" fill="black"/>
<path d="M159.138 146.897H146.897V159.138H159.138V146.897Z" fill="black"/>
<path d="M171.379 146.897H159.138V159.138H171.379V146.897Z" fill="black"/>
<path d="M183.621 146.897H171.379V159.138H183.621V146.897Z" fill="black"/>
<path d="M208.103 146.897H195.862V159.138H208.103V146.897Z" fill="black"/>
<path d="M244.828 146.897H232.586V159.138H244.828V146.897Z" fill="black"/>
<path d="M281.552 146.897H269.31V159.138H281.552V146.897Z" fill="black"/>
<path d="M306.034 146.897H293.793V159.138H306.034V146.897Z" fill="black"/>
<path d="M12.2414 159.138H0V171.379H12.2414V159.138Z" fill="black"/>
<path d="M24.4828 159.138H12.2414V171.379H24.4828V159.138Z" fill="black"/>
<path d="M36.7241 159.138H24.4828V171.379H36.7241V159.138Z" fill="black"/>
<path d="M61.2069 159.138H48.9655V171.379H61.2069V159.138Z" fill="black"/>
<path d="M73.4483 159.138H61.2069V171.379H73.4483V159.138Z" fill="black"/>
<path d="M110.172 159.138H97.931V171.379H110.172V159.138Z" fill="black"/>
<path d="M159.138 159.138H146.897V171.379H159.138V159.138Z" fill="black"/>
<path d="M195.862 159.138H183.621V171.379H195.862V159.138Z" fill="black"/>
<path d="M232.586 159.138H220.345V171.379H232.586V159.138Z" fill="black"/>
<path d="M244.828 159.138H232.586V171.379H244.828V159.138Z" fill="black"/>
<path d="M257.069 159.138H244.828V171.379H257.069V159.138Z" fill="black"/>
<path d="M269.31 159.138H257.069V171.379H269.31V159.138Z" fill="black"/>
<path d="M281.552 159.138H269.31V171.379H281.552V159.138Z" fill="black"/>
<path d="M293.793 159.138H281.552V171.379H293.793V159.138Z" fill="black"/>
<path d="M306.034 159.138H293.793V171.379H306.034V159.138Z" fill="black"/>
<path d="M330.517 159.138H318.276V171.379H330.517V159.138Z" fill="black"/>
<path d="M342.759 159.138H330.517V171.379H342.759V159.138Z" fill="black"/>
<path d="M355 159.138H342.759V171.379H355V159.138Z" fill="black"/>
<path d="M12.2414 171.379H0V183.621H12.2414V171.379Z" fill="black"/>
<path d="M24.4828 171.379H12.2414V183.621H24.4828V171.379Z" fill="black"/>
<path d="M36.7241 171.379H24.4828V183.621H36.7241V171.379Z" fill="black"/>
<path d="M48.9655 171.379H36.7241V183.621H48.9655V171.379Z" fill="black"/>
<path d="M73.4483 171.379H61.2069V183.621H73.4483V171.379Z" fill="black"/>
<path d="M85.6897 171.379H73.4483V183.621H85.6897V171.379Z" fill="black"/>
<path d="M97.931 171.379H85.6897V183.621H97.931V171.379Z" fill="black"/>
<path d="M110.172 171.379H97.931V183.621H110.172V171.379Z" fill="black"/>
<path d="M122.414 171.379H110.172V183.621H122.414V171.379Z" fill="black"/>
<path d="M134.655 171.379H122.414V183.621H134.655V171.379Z" fill="black"/>
<path d="M146.897 171.379H134.655V183.621H146.897V171.379Z" fill="black"/>
<path d="M159.138 171.379H146.897V183.621H159.138V171.379Z" fill="black"/>
<path d="M183.621 171.379H171.379V183.621H183.621V171.379Z" fill="black"/>
<path d="M195.862 171.379H183.621V183.621H195.862V171.379Z" fill="black"/>
<path d="M232.586 171.379H220.345V183.621H232.586V171.379Z" fill="black"/>
<path d="M318.276 171.379H306.034V183.621H318.276V171.379Z" fill="black"/>
<path d="M355 171.379H342.759V183.621H355V171.379Z" fill="black"/>
<path d="M12.2414 183.621H0V195.862H12.2414V183.621Z" fill="black"/>
<path d="M24.4828 183.621H12.2414V195.862H24.4828V183.621Z" fill="black"/>
<path d="M48.9655 183.621H36.7241V195.862H48.9655V183.621Z" fill="black"/>
<path d="M61.2069 183.621H48.9655V195.862H61.2069V183.621Z" fill="black"/>
<path d="M110.172 183.621H97.931V195.862H110.172V183.621Z" fill="black"/>
<path d="M146.897 183.621H134.655V195.862H146.897V183.621Z" fill="black"/>
<path d="M183.621 183.621H171.379V195.862H183.621V183.621Z" fill="black"/>
<path d="M195.862 183.621H183.621V195.862H195.862V183.621Z" fill="black"/>
<path d="M208.103 183.621H195.862V195.862H208.103V183.621Z" fill="black"/>
<path d="M220.345 183.621H208.103V195.862H220.345V183.621Z" fill="black"/>
<path d="M232.586 183.621H220.345V195.862H232.586V183.621Z" fill="black"/>
<path d="M244.828 183.621H232.586V195.862H244.828V183.621Z" fill="black"/>
<path d="M269.31 183.621H257.069V195.862H269.31V183.621Z" fill="black"/>
<path d="M281.552 183.621H269.31V195.862H281.552V183.621Z" fill="black"/>
<path d="M306.034 183.621H293.793V195.862H306.034V183.621Z" fill="black"/>
<path d="M318.276 183.621H306.034V195.862H318.276V183.621Z" fill="black"/>
<path d="M330.517 183.621H318.276V195.862H330.517V183.621Z" fill="black"/>
<path d="M355 183.621H342.759V195.862H355V183.621Z" fill="black"/>
<path d="M85.6897 195.862H73.4483V208.103H85.6897V195.862Z" fill="black"/>
<path d="M110.172 195.862H97.931V208.103H110.172V195.862Z" fill="black"/>
<path d="M159.138 195.862H146.897V208.103H159.138V195.862Z" fill="black"/>
<path d="M244.828 195.862H232.586V208.103H244.828V195.862Z" fill="black"/>
<path d="M257.069 195.862H244.828V208.103H257.069V195.862Z" fill="black"/>
<path d="M306.034 195.862H293.793V208.103H306.034V195.862Z" fill="black"/>
<path d="M318.276 195.862H306.034V208.103H318.276V195.862Z" fill="black"/>
<path d="M330.517 195.862H318.276V208.103H330.517V195.862Z" fill="black"/>
<path d="M355 195.862H342.759V208.103H355V195.862Z" fill="black"/>
<path d="M12.2414 208.103H0V220.345H12.2414V208.103Z" fill="black"/>
<path d="M24.4828 208.103H12.2414V220.345H24.4828V208.103Z" fill="black"/>
<path d="M48.9655 208.103H36.7241V220.345H48.9655V208.103Z" fill="black"/>
<path d="M61.2069 208.103H48.9655V220.345H61.2069V208.103Z" fill="black"/>
<path d="M110.172 208.103H97.931V220.345H110.172V208.103Z" fill="black"/>
<path d="M122.414 208.103H110.172V220.345H122.414V208.103Z" fill="black"/>
<path d="M146.897 208.103H134.655V220.345H146.897V208.103Z" fill="black"/>
<path d="M183.621 208.103H171.379V220.345H183.621V208.103Z" fill="black"/>
<path d="M232.586 208.103H220.345V220.345H232.586V208.103Z" fill="black"/>
<path d="M257.069 208.103H244.828V220.345H257.069V208.103Z" fill="black"/>
<path d="M293.793 208.103H281.552V220.345H293.793V208.103Z" fill="black"/>
<path d="M330.517 208.103H318.276V220.345H330.517V208.103Z" fill="black"/>
<path d="M24.4828 220.345H12.2414V232.586H24.4828V220.345Z" fill="black"/>
<path d="M36.7241 220.345H24.4828V232.586H36.7241V220.345Z" fill="black"/>
<path d="M73.4483 220.345H61.2069V232.586H73.4483V220.345Z" fill="black"/>
<path d="M85.6897 220.345H73.4483V232.586H85.6897V220.345Z" fill="black"/>
<path d="M110.172 220.345H97.931V232.586H110.172V220.345Z" fill="black"/>
<path d="M122.414 220.345H110.172V232.586H122.414V220.345Z" fill="black"/>
<path d="M171.379 220.345H159.138V232.586H171.379V220.345Z" fill="black"/>
<path d="M195.862 220.345H183.621V232.586H195.862V220.345Z" fill="black"/>
<path d="M220.345 220.345H208.103V232.586H220.345V220.345Z" fill="black"/>
<path d="M232.586 220.345H220.345V232.586H232.586V220.345Z" fill="black"/>
<path d="M281.552 220.345H269.31V232.586H281.552V220.345Z" fill="black"/>
<path d="M293.793 220.345H281.552V232.586H293.793V220.345Z" fill="black"/>
<path d="M330.517 220.345H318.276V232.586H330.517V220.345Z" fill="black"/>
<path d="M24.4828 232.586H12.2414V244.828H24.4828V232.586Z" fill="black"/>
<path d="M36.7241 232.586H24.4828V244.828H36.7241V232.586Z" fill="black"/>
<path d="M61.2069 232.586H48.9655V244.828H61.2069V232.586Z" fill="black"/>
<path d="M122.414 232.586H110.172V244.828H122.414V232.586Z" fill="black"/>
<path d="M146.897 232.586H134.655V244.828H146.897V232.586Z" fill="black"/>
<path d="M159.138 232.586H146.897V244.828H159.138V232.586Z" fill="black"/>
<path d="M183.621 232.586H171.379V244.828H183.621V232.586Z" fill="black"/>
<path d="M208.103 232.586H195.862V244.828H208.103V232.586Z" fill="black"/>
<path d="M220.345 232.586H208.103V244.828H220.345V232.586Z" fill="black"/>
<path d="M232.586 232.586H220.345V244.828H232.586V232.586Z" fill="black"/>
<path d="M244.828 232.586H232.586V244.828H244.828V232.586Z" fill="black"/>
<path d="M257.069 232.586H244.828V244.828H257.069V232.586Z" fill="black"/>
<path d="M269.31 232.586H257.069V244.828H269.31V232.586Z" fill="black"/>
<path d="M281.552 232.586H269.31V244.828H281.552V232.586Z" fill="black"/>
<path d="M293.793 232.586H281.552V244.828H293.793V232.586Z" fill="black"/>
<path d="M306.034 232.586H293.793V244.828H306.034V232.586Z" fill="black"/>
<path d="M330.517 232.586H318.276V244.828H330.517V232.586Z" fill="black"/>
<path d="M342.759 232.586H330.517V244.828H342.759V232.586Z" fill="black"/>
<path d="M355 232.586H342.759V244.828H355V232.586Z" fill="black"/>
<path d="M36.7241 244.828H24.4828V257.069H36.7241V244.828Z" fill="black"/>
<path d="M48.9655 244.828H36.7241V257.069H48.9655V244.828Z" fill="black"/>
<path d="M73.4483 244.828H61.2069V257.069H73.4483V244.828Z" fill="black"/>
<path d="M85.6897 244.828H73.4483V257.069H85.6897V244.828Z" fill="black"/>
<path d="M97.931 244.828H85.6897V257.069H97.931V244.828Z" fill="black"/>
<path d="M159.138 244.828H146.897V257.069H159.138V244.828Z" fill="black"/>
<path d="M183.621 244.828H171.379V257.069H183.621V244.828Z" fill="black"/>
<path d="M195.862 244.828H183.621V257.069H195.862V244.828Z" fill="black"/>
<path d="M208.103 244.828H195.862V257.069H208.103V244.828Z" fill="black"/>
<path d="M220.345 244.828H208.103V257.069H220.345V244.828Z" fill="black"/>
<path d="M232.586 244.828H220.345V257.069H232.586V244.828Z" fill="black"/>
<path d="M257.069 244.828H244.828V257.069H257.069V244.828Z" fill="black"/>
<path d="M269.31 244.828H257.069V257.069H269.31V244.828Z" fill="black"/>
<path d="M281.552 244.828H269.31V257.069H281.552V244.828Z" fill="black"/>
<path d="M293.793 244.828H281.552V257.069H293.793V244.828Z" fill="black"/>
<path d="M306.034 244.828H293.793V257.069H306.034V244.828Z" fill="black"/>
<path d="M355 244.828H342.759V257.069H355V244.828Z" fill="black"/>
<path d="M110.172 257.069H97.931V269.31H110.172V257.069Z" fill="black"/>
<path d="M146.897 257.069H134.655V269.31H146.897V257.069Z" fill="black"/>
<path d="M183.621 257.069H171.379V269.31H183.621V257.069Z" fill="black"/>
<path d="M195.862 257.069H183.621V269.31H195.862V257.069Z" fill="black"/>
<path d="M257.069 257.069H244.828V269.31H257.069V257.069Z" fill="black"/>
<path d="M306.034 257.069H293.793V269.31H306.034V257.069Z" fill="black"/>
<path d="M318.276 257.069H306.034V269.31H318.276V257.069Z" fill="black"/>
<path d="M330.517 257.069H318.276V269.31H330.517V257.069Z" fill="black"/>
<path d="M342.759 257.069H330.517V269.31H342.759V257.069Z" fill="black"/>
<path d="M355 257.069H342.759V269.31H355V257.069Z" fill="black"/>
<path d="M12.2414 269.31H0V281.552H12.2414V269.31Z" fill="black"/>
<path d="M24.4828 269.31H12.2414V281.552H24.4828V269.31Z" fill="black"/>
<path d="M36.7241 269.31H24.4828V281.552H36.7241V269.31Z" fill="black"/>
<path d="M48.9655 269.31H36.7241V281.552H48.9655V269.31Z" fill="black"/>
<path d="M61.2069 269.31H48.9655V281.552H61.2069V269.31Z" fill="black"/>
<path d="M73.4483 269.31H61.2069V281.552H73.4483V269.31Z" fill="black"/>
<path d="M85.6897 269.31H73.4483V281.552H85.6897V269.31Z" fill="black"/>
<path d="M134.655 269.31H122.414V281.552H134.655V269.31Z" fill="black"/>
<path d="M159.138 269.31H146.897V281.552H159.138V269.31Z" fill="black"/>
<path d="M171.379 269.31H159.138V281.552H171.379V269.31Z" fill="black"/>
<path d="M183.621 269.31H171.379V281.552H183.621V269.31Z" fill="black"/>
<path d="M195.862 269.31H183.621V281.552H195.862V269.31Z" fill="black"/>
<path d="M232.586 269.31H220.345V281.552H232.586V269.31Z" fill="black"/>
<path d="M257.069 269.31H244.828V281.552H257.069V269.31Z" fill="black"/>
<path d="M281.552 269.31H269.31V281.552H281.552V269.31Z" fill="black"/>
<path d="M306.034 269.31H293.793V281.552H306.034V269.31Z" fill="black"/>
<path d="M342.759 269.31H330.517V281.552H342.759V269.31Z" fill="black"/>
<path d="M12.2414 281.552H0V293.793H12.2414V281.552Z" fill="black"/>
<path d="M85.6897 281.552H73.4483V293.793H85.6897V281.552Z" fill="black"/>
<path d="M159.138 281.552H146.897V293.793H159.138V281.552Z" fill="black"/>
<path d="M171.379 281.552H159.138V293.793H171.379V281.552Z" fill="black"/>
<path d="M183.621 281.552H171.379V293.793H183.621V281.552Z" fill="black"/>
<path d="M195.862 281.552H183.621V293.793H195.862V281.552Z" fill="black"/>
<path d="M208.103 281.552H195.862V293.793H208.103V281.552Z" fill="black"/>
<path d="M232.586 281.552H220.345V293.793H232.586V281.552Z" fill="black"/>
<path d="M244.828 281.552H232.586V293.793H244.828V281.552Z" fill="black"/>
<path d="M257.069 281.552H244.828V293.793H257.069V281.552Z" fill="black"/>
<path d="M306.034 281.552H293.793V293.793H306.034V281.552Z" fill="black"/>
<path d="M12.2414 293.793H0V306.034H12.2414V293.793Z" fill="black"/>
<path d="M36.7241 293.793H24.4828V306.034H36.7241V293.793Z" fill="black"/>
<path d="M48.9655 293.793H36.7241V306.034H48.9655V293.793Z" fill="black"/>
<path d="M61.2069 293.793H48.9655V306.034H61.2069V293.793Z" fill="black"/>
<path d="M85.6897 293.793H73.4483V306.034H85.6897V293.793Z" fill="black"/>
<path d="M110.172 293.793H97.931V306.034H110.172V293.793Z" fill="black"/>
<path d="M122.414 293.793H110.172V306.034H122.414V293.793Z" fill="black"/>
<path d="M134.655 293.793H122.414V306.034H134.655V293.793Z" fill="black"/>
<path d="M146.897 293.793H134.655V306.034H146.897V293.793Z" fill="black"/>
<path d="M171.379 293.793H159.138V306.034H171.379V293.793Z" fill="black"/>
<path d="M183.621 293.793H171.379V306.034H183.621V293.793Z" fill="black"/>
<path d="M220.345 293.793H208.103V306.034H220.345V293.793Z" fill="black"/>
<path d="M257.069 293.793H244.828V306.034H257.069V293.793Z" fill="black"/>
<path d="M269.31 293.793H257.069V306.034H269.31V293.793Z" fill="black"/>
<path d="M281.552 293.793H269.31V306.034H281.552V293.793Z" fill="black"/>
<path d="M293.793 293.793H281.552V306.034H293.793V293.793Z" fill="black"/>
<path d="M306.034 293.793H293.793V306.034H306.034V293.793Z" fill="black"/>
<path d="M330.517 293.793H318.276V306.034H330.517V293.793Z" fill="black"/>
<path d="M342.759 293.793H330.517V306.034H342.759V293.793Z" fill="black"/>
<path d="M355 293.793H342.759V306.034H355V293.793Z" fill="black"/>
<path d="M12.2414 306.034H0V318.276H12.2414V306.034Z" fill="black"/>
<path d="M36.7241 306.034H24.4828V318.276H36.7241V306.034Z" fill="black"/>
<path d="M48.9655 306.034H36.7241V318.276H48.9655V306.034Z" fill="black"/>
<path d="M61.2069 306.034H48.9655V318.276H61.2069V306.034Z" fill="black"/>
<path d="M85.6897 306.034H73.4483V318.276H85.6897V306.034Z" fill="black"/>
<path d="M146.897 306.034H134.655V318.276H146.897V306.034Z" fill="black"/>
<path d="M171.379 306.034H159.138V318.276H171.379V306.034Z" fill="black"/>
<path d="M208.103 306.034H195.862V318.276H208.103V306.034Z" fill="black"/>
<path d="M232.586 306.034H220.345V318.276H232.586V306.034Z" fill="black"/>
<path d="M244.828 306.034H232.586V318.276H244.828V306.034Z" fill="black"/>
<path d="M257.069 306.034H244.828V318.276H257.069V306.034Z" fill="black"/>
<path d="M269.31 306.034H257.069V318.276H269.31V306.034Z" fill="black"/>
<path d="M281.552 306.034H269.31V318.276H281.552V306.034Z" fill="black"/>
<path d="M306.034 306.034H293.793V318.276H306.034V306.034Z" fill="black"/>
<path d="M342.759 306.034H330.517V318.276H342.759V306.034Z" fill="black"/>
<path d="M355 306.034H342.759V318.276H355V306.034Z" fill="black"/>
<path d="M12.2414 318.276H0V330.517H12.2414V318.276Z" fill="black"/>
<path d="M36.7241 318.276H24.4828V330.517H36.7241V318.276Z" fill="black"/>
<path d="M48.9655 318.276H36.7241V330.517H48.9655V318.276Z" fill="black"/>
<path d="M61.2069 318.276H48.9655V330.517H61.2069V318.276Z" fill="black"/>
<path d="M85.6897 318.276H73.4483V330.517H85.6897V318.276Z" fill="black"/>
<path d="M110.172 318.276H97.931V330.517H110.172V318.276Z" fill="black"/>
<path d="M122.414 318.276H110.172V330.517H122.414V318.276Z" fill="black"/>
<path d="M134.655 318.276H122.414V330.517H134.655V318.276Z" fill="black"/>
<path d="M171.379 318.276H159.138V330.517H171.379V318.276Z" fill="black"/>
<path d="M183.621 318.276H171.379V330.517H183.621V318.276Z" fill="black"/>
<path d="M195.862 318.276H183.621V330.517H195.862V318.276Z" fill="black"/>
<path d="M220.345 318.276H208.103V330.517H220.345V318.276Z" fill="black"/>
<path d="M244.828 318.276H232.586V330.517H244.828V318.276Z" fill="black"/>
<path d="M257.069 318.276H244.828V330.517H257.069V318.276Z" fill="black"/>
<path d="M330.517 318.276H318.276V330.517H330.517V318.276Z" fill="black"/>
<path d="M342.759 318.276H330.517V330.517H342.759V318.276Z" fill="black"/>
<path d="M12.2414 330.517H0V342.759H12.2414V330.517Z" fill="black"/>
<path d="M85.6897 330.517H73.4483V342.759H85.6897V330.517Z" fill="black"/>
<path d="M110.172 330.517H97.931V342.759H110.172V330.517Z" fill="black"/>
<path d="M122.414 330.517H110.172V342.759H122.414V330.517Z" fill="black"/>
<path d="M171.379 330.517H159.138V342.759H171.379V330.517Z" fill="black"/>
<path d="M220.345 330.517H208.103V342.759H220.345V330.517Z" fill="black"/>
<path d="M257.069 330.517H244.828V342.759H257.069V330.517Z" fill="black"/>
<path d="M293.793 330.517H281.552V342.759H293.793V330.517Z" fill="black"/>
<path d="M306.034 330.517H293.793V342.759H306.034V330.517Z" fill="black"/>
<path d="M330.517 330.517H318.276V342.759H330.517V330.517Z" fill="black"/>
<path d="M12.2414 342.759H0V355H12.2414V342.759Z" fill="black"/>
<path d="M24.4828 342.759H12.2414V355H24.4828V342.759Z" fill="black"/>
<path d="M36.7241 342.759H24.4828V355H36.7241V342.759Z" fill="black"/>
<path d="M48.9655 342.759H36.7241V355H48.9655V342.759Z" fill="black"/>
<path d="M61.2069 342.759H48.9655V355H61.2069V342.759Z" fill="black"/>
<path d="M73.4483 342.759H61.2069V355H73.4483V342.759Z" fill="black"/>
<path d="M85.6897 342.759H73.4483V355H85.6897V342.759Z" fill="black"/>
<path d="M110.172 342.759H97.931V355H110.172V342.759Z" fill="black"/>
<path d="M146.897 342.759H134.655V355H146.897V342.759Z" fill="black"/>
<path d="M159.138 342.759H146.897V355H159.138V342.759Z" fill="black"/>
<path d="M171.379 342.759H159.138V355H171.379V342.759Z" fill="black"/>
<path d="M183.621 342.759H171.379V355H183.621V342.759Z" fill="black"/>
<path d="M195.862 342.759H183.621V355H195.862V342.759Z" fill="black"/>
<path d="M232.586 342.759H220.345V355H232.586V342.759Z" fill="black"/>
<path d="M293.793 342.759H281.552V355H293.793V342.759Z" fill="black"/>
<path d="M306.034 342.759H293.793V355H306.034V342.759Z" fill="black"/>
<path d="M318.276 342.759H306.034V355H318.276V342.759Z" fill="black"/>
<path d="M330.517 342.759H318.276V355H330.517V342.759Z" fill="black"/>
<path d="M342.759 342.759H330.517V355H342.759V342.759Z" fill="black"/>
</svg>
