<svg width="1877" height="2686" viewBox="0 0 1877 2686" fill="none" xmlns="http://www.w3.org/2000/svg">
<path d="M99.9964 608.624H524.304H948.612H1797.23L1721.79 954.94H451.69L423.908 1082.87C400.028 1192.83 483.838 1296.74 596.411 1296.74H1436.68L1362.09 1648.7H936.868L789.929 2338.61H1215.2L1140.32 2685.06H295.424L517.245 1648.7V1648.7C188.381 1648.7 -56.9185 1345.87 11.5128 1024.35L99.9964 608.624Z" fill="black"/>
<path d="M826.463 165.009C846.809 69.3432 931.231 0.945313 1028.96 0.945313V0.945313C1160.66 0.945313 1258.88 122.37 1231.47 251.277L1227.28 270.937C1206.94 366.604 1122.52 435.002 1024.78 435.002V435.002C893.092 435.002 794.867 313.577 822.282 184.67L826.463 165.009Z" fill="black"/>
<path d="M1467.38 165.009C1487.73 69.3432 1572.15 0.945312 1669.88 0.945312V0.945312C1801.58 0.945312 1899.8 122.37 1872.39 251.277L1868.2 270.937C1847.86 366.604 1763.44 435.002 1665.7 435.002V435.002C1534.01 435.002 1435.79 313.577 1463.2 184.67L1467.38 165.009Z" fill="black"/>
</svg>
