<svg width="1853" height="1828" viewBox="0 0 1853 1828" fill="none" xmlns="http://www.w3.org/2000/svg">
<path d="M268.434 592.28H304.616L299.869 614.538C318.431 614.624 332.972 620.027 343.493 630.749C354.014 641.385 359.275 655.022 359.275 671.662C359.275 685.643 355.768 699.195 348.754 712.318C341.74 725.441 331.347 736.206 317.575 744.612C303.889 752.932 287.637 757.606 268.819 758.635L263.815 782.566H227.761L232.893 758.635C211.423 755.976 196.24 748.986 187.344 737.664C178.448 726.342 174 713.305 174 698.552C174 677.881 182.083 659.311 198.25 642.843C214.417 626.289 236.272 616.639 263.815 613.895L268.434 592.28ZM276.132 725.827C287.765 725.056 298.115 719.352 307.182 708.716C316.335 698.08 320.911 686.844 320.911 675.007C320.911 657.424 311.716 647.732 293.325 645.931L276.132 725.827ZM257.014 646.188C245.381 648.504 234.988 654.25 225.836 663.428C216.683 672.52 212.107 683.971 212.107 697.78C212.107 706.872 214.802 713.862 220.19 718.751C225.665 723.554 232.166 726.128 239.693 726.471L257.014 646.188Z" fill="black"/>
<path d="M453.08 554.787C453.974 550.485 456.119 546.99 459.515 544.302C462.911 541.434 466.844 540 471.313 540C474.351 540 477.032 540.627 479.356 541.882C481.859 543.137 483.914 544.839 485.523 546.99C487.31 549.141 488.562 551.561 489.276 554.249C489.991 556.938 490.081 559.716 489.545 562.584L489.276 564.466C488.383 568.767 486.148 572.352 482.574 575.22C479.177 577.908 475.334 579.253 471.044 579.253C468.184 579.253 465.503 578.625 463.001 577.371C460.498 576.116 458.353 574.413 456.566 572.262C454.957 570.112 453.795 567.692 453.08 565.003C452.365 562.315 452.276 559.537 452.812 556.669L453.08 554.787ZM510.726 554.787C511.62 550.485 513.765 546.99 517.161 544.302C520.557 541.434 524.489 540 528.958 540C531.997 540 534.678 540.627 537.002 541.882C539.504 543.137 541.56 544.839 543.168 546.99C544.956 549.141 546.207 551.561 546.922 554.249C547.637 556.938 547.726 559.716 547.19 562.584L546.654 564.466C545.76 568.767 543.615 572.352 540.219 575.22C536.823 577.908 532.98 579.253 528.69 579.253C525.651 579.253 522.881 578.625 520.378 577.371C517.876 576.116 515.731 574.413 513.943 572.262C512.335 570.112 511.173 567.692 510.458 565.003C509.743 562.315 509.743 559.537 510.458 556.669L510.726 554.787ZM387.927 592.695H541.292L534.589 624.151H419.834L417.152 636.519C416.616 638.849 416.616 641.179 417.152 643.509C417.689 645.66 418.672 647.631 420.102 649.424C421.532 651.037 423.23 652.381 425.196 653.456C427.341 654.532 429.665 655.07 432.167 655.07H508.849L502.146 687.063H463.537L450.399 749.437H488.74L482.037 780.893H404.819L424.928 687.063C417.599 687.063 410.807 685.54 404.551 682.493C398.473 679.266 393.29 675.054 389 669.857C384.889 664.659 381.939 658.744 380.152 652.112C378.365 645.301 378.275 638.311 379.884 631.142L387.927 592.695Z" fill="black"/>
<path d="M570.296 780.893H531.547L570.937 592.28H647.408C661.009 592.28 671.744 593.91 679.613 597.169C687.568 600.343 693.855 605.66 698.474 613.123C703.093 620.499 705.403 629.334 705.403 639.626C705.403 649.147 703.564 658.41 699.886 667.416C696.208 676.423 691.674 683.627 686.285 689.031C680.982 694.435 675.251 698.552 669.092 701.382C662.933 704.127 654.636 706.228 644.201 707.687C638.127 708.544 626.751 708.973 610.071 708.973H585.308L570.296 780.893ZM591.723 677.709H603.656C624.099 677.709 637.743 676.423 644.586 673.849C651.429 671.276 656.817 667.159 660.752 661.498C664.687 655.837 666.654 649.619 666.654 642.843C666.654 638.297 665.628 634.566 663.575 631.649C661.608 628.733 658.785 626.632 655.107 625.345C651.514 623.973 643.431 623.287 630.857 623.287H603.142L591.723 677.709Z" fill="black"/>
<path d="M843.204 712.962L882.21 718.88C874.597 740.066 863.178 756.277 847.952 767.513C832.726 778.663 814.891 784.238 794.448 784.238C771.438 784.238 753.432 777.291 740.431 763.396C727.514 749.501 721.056 729.344 721.056 702.926C721.056 681.483 725.376 661.884 734.015 644.129C742.74 626.289 754.801 612.651 770.198 603.216C785.595 593.781 802.36 589.063 820.494 589.063C840.852 589.063 857.318 594.553 869.892 605.532C882.466 616.425 889.865 631.306 892.089 650.176L855.009 653.779C852.956 642.8 848.978 634.866 843.076 629.977C837.26 625.002 829.476 622.515 819.724 622.515C809.032 622.515 799.024 625.774 789.701 632.293C780.462 638.811 773.063 649.018 767.503 662.913C761.943 676.723 759.163 690.532 759.163 704.341C759.163 719.437 762.756 731.102 769.941 739.337C777.212 747.571 786.236 751.688 797.014 751.688C807.022 751.688 816.174 748.428 824.472 741.91C832.854 735.391 839.099 725.742 843.204 712.962Z" fill="black"/>
<path d="M968.688 780.893H929.94L962.786 623.801H907.614L914.158 592.28H1062.35L1055.81 623.801H1001.41L968.688 780.893Z" fill="black"/>
<path d="M1103.8 592.28H1235.44L1202.08 749.372H1218.63L1200.8 833H1169.36L1180.65 780.893H1059.66L1048.37 833H1016.93L1035.02 749.372H1051.96C1073.43 712.919 1090.71 660.555 1103.8 592.28ZM1190.53 623.801H1134.85C1123.38 674.922 1109.18 716.778 1092.25 749.372H1163.84L1190.53 623.801Z" fill="black"/>
<path d="M1249.55 706.915C1249.55 695.764 1251.22 684.013 1254.56 671.662C1258.92 655.108 1265.55 640.741 1274.44 628.562C1283.42 616.382 1294.72 606.775 1308.32 599.742C1321.92 592.623 1337.4 589.063 1354.76 589.063C1378.03 589.063 1396.81 596.311 1411.09 610.807C1425.46 625.302 1432.65 644.515 1432.65 668.446C1432.65 688.345 1427.98 707.601 1418.66 726.213C1409.34 744.826 1396.68 759.15 1380.68 769.185C1364.69 779.221 1346.59 784.238 1326.41 784.238C1308.87 784.238 1294.16 780.25 1282.27 772.273C1270.38 764.296 1261.95 754.433 1256.99 742.682C1252.03 730.845 1249.55 718.923 1249.55 706.915ZM1287.79 706.143C1287.79 719.094 1291.72 729.945 1299.59 738.693C1307.46 747.442 1317.81 751.816 1330.64 751.816C1341.08 751.816 1351.09 748.386 1360.67 741.524C1370.33 734.576 1378.29 724.112 1384.53 710.131C1390.86 696.064 1394.03 682.384 1394.03 669.089C1394.03 654.25 1390.05 642.628 1382.09 634.223C1374.14 625.731 1364 621.485 1351.68 621.485C1332.78 621.485 1317.38 630.32 1305.49 647.989C1293.69 665.658 1287.79 685.043 1287.79 706.143Z" fill="black"/>
<path d="M1482.94 592.28H1621L1614.58 623.801H1514.63L1481.02 780.893H1442.78L1482.94 592.28Z" fill="black"/>
<path d="M117.958 716.65L129.814 716.65L129.814 736.716L117.958 736.716C117.357 752.907 113.359 764.347 105.963 771.036C98.5219 777.679 89.2313 781 78.092 781C66.3517 781 56.9457 777.517 49.8738 770.552C42.7557 763.586 38.8962 752.308 38.2953 736.716L28.2422 736.716L28.2422 716.65L38.2953 716.65C38.8962 700.551 42.8713 689.157 50.2205 682.468C57.5697 675.734 66.8833 672.366 78.1613 672.366C89.3469 672.366 98.6374 675.71 106.033 682.399C113.382 689.088 117.357 700.505 117.958 716.65ZM100.833 716.65C100.833 711.299 99.9316 706.709 98.129 702.88C96.3263 699.006 93.8997 696.261 90.8491 694.646C87.7985 693.032 83.3381 692.225 77.468 692.225C62.7696 692.225 55.4204 700.366 55.4204 716.65L100.833 716.65ZM100.833 736.716L55.4204 736.716C55.4204 745.342 57.3617 751.57 61.2443 755.398C65.0807 759.227 70.9046 761.141 78.716 761.141C93.4606 761.141 100.833 753 100.833 736.716Z" fill="black"/>
<path d="M7.96847 614.444C5.65036 613.962 3.7669 612.805 2.31809 610.974C0.772692 609.142 -7.60484e-06 607.022 -7.71018e-06 604.612C-7.78181e-06 602.973 0.338047 601.527 1.01416 600.274C1.69027 598.924 2.60786 597.816 3.7669 596.948C4.92596 595.984 6.22989 595.31 7.6787 594.924C9.12752 594.539 10.6246 594.49 12.17 594.779L13.1842 594.924C15.5023 595.406 17.4341 596.611 18.9795 598.539C20.4283 600.37 21.1527 602.443 21.1527 604.756C21.1527 606.299 20.8146 607.745 20.1385 609.094C19.4624 610.444 18.5448 611.6 17.3858 612.564C16.2267 613.432 14.9228 614.058 13.474 614.444C12.0252 614.83 10.528 614.878 8.98264 614.589L7.96847 614.444ZM7.96847 583.357C5.65036 582.875 3.7669 581.718 2.31809 579.887C0.772691 578.055 -8.9637e-06 575.934 -9.06904e-06 573.524C-9.14067e-06 571.886 0.338046 570.44 1.01416 569.187C1.69027 567.837 2.60785 566.729 3.7669 565.861C4.92596 564.897 6.22989 564.222 7.6787 563.837C9.12751 563.451 10.6246 563.403 12.17 563.692L13.1842 563.981C15.5023 564.463 17.4341 565.62 18.9795 567.452C20.4283 569.283 21.1527 571.356 21.1527 573.669C21.1527 575.308 20.8146 576.802 20.1385 578.151C19.4624 579.501 18.5448 580.658 17.3858 581.622C16.2267 582.489 14.9228 583.116 13.474 583.501C12.0251 583.887 10.528 583.887 8.98264 583.501L7.96847 583.357ZM28.3967 649.58L28.3967 566.873L45.3479 570.488L45.3479 632.373L52.0124 633.819C53.2681 634.108 54.5237 634.108 55.7793 633.819C56.9384 633.53 58.0009 633 58.9667 632.229C59.836 631.458 60.5604 630.542 61.1399 629.482C61.7195 628.325 62.0092 627.072 62.0092 625.722L62.0092 584.369L79.2501 587.984L79.2501 608.805L112.863 615.89L112.863 595.213L129.814 598.828L129.814 640.471L79.2501 629.626C79.2501 633.578 78.4291 637.241 76.7871 640.615C75.0486 643.893 72.7788 646.688 69.9777 649.001C67.1767 651.219 63.9893 652.809 60.4155 653.773C56.7452 654.737 52.9783 654.785 49.1148 653.918L28.3967 649.58Z" fill="black"/>
<path d="M129.814 553.825L28.1728 553.825L28.1728 520.958C28.1728 508.503 28.6813 500.385 29.6982 496.602C31.2235 490.79 34.5514 485.923 39.682 482.002C44.7663 478.081 51.3529 476.121 59.4416 476.121C65.6815 476.121 70.9277 477.251 75.18 479.511C79.4324 481.772 82.7834 484.655 85.2332 488.161C87.6367 491.62 89.2313 495.149 90.0171 498.747C90.9877 503.637 91.4731 510.718 91.4731 519.99L91.4731 533.344L129.814 533.344L129.814 553.825ZM45.3672 533.344L74.2094 533.344L74.2094 522.135C74.2094 514.062 73.6778 508.665 72.6147 505.943C71.5516 503.222 69.8877 501.1 67.6228 499.577C65.358 498.009 62.7234 497.225 59.719 497.225C56.0212 497.225 52.9706 498.309 50.5671 500.477C48.1636 502.645 46.6614 505.39 46.0605 508.711C45.5983 511.156 45.3672 516.069 45.3672 523.449L45.3672 533.344Z" fill="black"/>
<path d="M92.4437 398.001L98.7529 378.143C109.846 381.187 118.097 386.261 123.504 393.365C128.866 400.423 131.547 409.395 131.547 420.282C131.547 433.751 126.948 444.822 117.75 453.495C108.506 462.167 95.8872 466.503 79.8946 466.503C62.9776 466.503 49.8507 462.144 40.514 453.425C31.131 444.707 26.4395 433.244 26.4395 419.036C26.4395 406.627 30.1141 396.548 37.4633 388.799C41.8082 384.186 48.048 380.726 56.183 378.42L61.0363 398.693C55.767 399.893 51.6071 402.407 48.5565 406.235C45.5059 410.018 43.9806 414.631 43.9806 420.074C43.9806 427.593 46.6845 433.705 52.0924 438.41C57.5003 443.069 66.2593 445.399 78.3693 445.399C91.2189 445.399 100.371 443.092 105.825 438.48C111.279 433.867 114.006 427.87 114.006 420.489C114.006 415.046 112.273 410.364 108.806 406.443C105.339 402.522 99.8854 399.708 92.4437 398.001Z" fill="black"/>
<path d="M129.814 341.263L45.3672 341.263L45.3672 371.362L28.1728 371.362L28.1728 290.751L45.3672 290.751L45.3672 320.781L129.814 320.781L129.814 341.263Z" fill="black"/>
<path d="M28.1728 272.899L28.1728 202.806L112.758 202.806L112.758 193.88L152 193.88L152 210.902L129.814 210.902L129.814 274.768L152 274.768L152 291.789L112.758 291.789L112.758 283.209C104.068 279.011 93.9921 276.244 82.5292 274.906C71.0201 273.568 56.4835 272.899 38.9193 272.899L28.1728 272.899ZM45.2285 253.387C76.1044 253.387 98.6143 256.178 112.758 261.759L112.758 223.218L45.2285 223.218L45.2285 253.387Z" fill="black"/>
<path d="M79.6173 184.193C69.2637 184.193 60.574 182.648 53.5484 179.557C48.3716 177.251 43.7263 174.114 39.6126 170.147C35.4989 166.134 32.4483 161.751 30.4608 157C27.7799 150.68 26.4395 143.392 26.4395 135.135C26.4395 120.189 31.0848 108.242 40.3753 99.2927C49.6658 90.2975 62.5847 85.8 79.1319 85.8C95.5405 85.8 108.39 90.2514 117.681 99.1543C126.925 108.057 131.547 119.958 131.547 134.858C131.547 149.942 126.948 161.936 117.75 170.839C108.506 179.742 95.7948 184.193 79.6173 184.193ZM78.9239 163.089C90.4331 163.089 99.1689 160.437 105.131 155.132C111.048 149.827 114.006 143.092 114.006 134.927C114.006 126.763 111.071 120.074 105.201 114.861C99.2845 109.603 90.4331 106.973 78.6466 106.973C66.9988 106.973 58.3092 109.533 52.5777 114.654C46.8463 119.728 43.9806 126.486 43.9806 134.927C43.9806 143.369 46.8925 150.173 52.7164 155.339C58.4941 160.506 67.2299 163.089 78.9239 163.089Z" fill="black"/>
<path d="M28.1728 68.7091L28.1728 -1.96229e-05L45.2285 -2.03685e-05L45.2285 48.2278L129.814 48.2278L129.814 68.7091L28.1728 68.7091Z" fill="black"/>
<path d="M1735.04 64.35L1723.19 64.35L1723.19 44.2839L1735.04 44.2839C1735.64 28.0926 1739.64 16.6526 1747.04 9.96387C1754.48 3.32129 1763.77 -3.90042e-06 1774.91 -3.41351e-06C1786.65 -2.90033e-06 1796.05 3.48274 1803.13 10.4482C1810.24 17.4137 1814.1 28.6923 1814.7 44.2839L1824.76 44.2839L1824.76 64.35L1814.7 64.35C1814.1 80.449 1810.13 91.8429 1802.78 98.5316C1795.43 105.266 1786.12 108.634 1774.84 108.634C1763.65 108.634 1754.36 105.29 1746.97 98.6008C1739.62 91.9121 1735.64 80.4952 1735.04 64.35ZM1752.17 64.35C1752.17 69.701 1753.07 74.2908 1754.87 78.1195C1756.67 81.9944 1759.1 84.739 1762.15 86.3536C1765.2 87.9681 1769.66 88.7753 1775.53 88.7753C1790.23 88.7753 1797.58 80.6336 1797.58 64.35L1752.17 64.35ZM1752.17 44.2839L1797.58 44.2839C1797.58 35.6577 1795.64 29.4303 1791.76 25.6016C1787.92 21.7729 1782.1 19.8585 1774.28 19.8585C1759.54 19.8585 1752.17 28.0003 1752.17 44.2839Z" fill="black"/>
<path d="M1845.03 166.556C1847.35 167.038 1849.23 168.195 1850.68 170.026C1852.23 171.858 1853 173.978 1853 176.388C1853 178.027 1852.66 179.473 1851.99 180.726C1851.31 182.076 1850.39 183.184 1849.23 184.052C1848.07 185.016 1846.77 185.69 1845.32 186.076C1843.87 186.461 1842.38 186.51 1840.83 186.221L1839.82 186.076C1837.5 185.594 1835.57 184.389 1834.02 182.461C1832.57 180.63 1831.85 178.557 1831.85 176.244C1831.85 174.701 1832.19 173.255 1832.86 171.906C1833.54 170.556 1834.46 169.4 1835.61 168.436C1836.77 167.568 1838.08 166.942 1839.53 166.556C1840.97 166.17 1842.47 166.122 1844.02 166.411L1845.03 166.556ZM1845.03 197.643C1847.35 198.125 1849.23 199.282 1850.68 201.113C1852.23 202.945 1853 205.066 1853 207.476C1853 209.114 1852.66 210.56 1851.99 211.813C1851.31 213.163 1850.39 214.271 1849.23 215.139C1848.07 216.103 1846.77 216.778 1845.32 217.163C1843.87 217.549 1842.38 217.597 1840.83 217.308L1839.82 217.019C1837.5 216.537 1835.57 215.38 1834.02 213.548C1832.57 211.717 1831.85 209.644 1831.85 207.331C1831.85 205.692 1832.19 204.198 1832.86 202.849C1833.54 201.499 1834.46 200.342 1835.61 199.378C1836.77 198.511 1838.08 197.884 1839.53 197.499C1840.97 197.113 1842.47 197.113 1844.02 197.499L1845.03 197.643ZM1824.6 131.42L1824.6 214.127L1807.65 210.512L1807.65 148.627L1800.99 147.181C1799.73 146.892 1798.48 146.892 1797.22 147.181C1796.06 147.47 1795 148 1794.03 148.771C1793.16 149.542 1792.44 150.458 1791.86 151.518C1791.28 152.675 1790.99 153.928 1790.99 155.278L1790.99 196.631L1773.75 193.016L1773.75 172.195L1740.14 165.11L1740.14 185.787L1723.19 182.172L1723.19 140.529L1773.75 151.374C1773.75 147.422 1774.57 143.759 1776.21 140.385C1777.95 137.107 1780.22 134.312 1783.02 131.999C1785.82 129.781 1789.01 128.191 1792.58 127.227C1796.25 126.263 1800.02 126.215 1803.89 127.082L1824.6 131.42Z" fill="black"/>
<path d="M1723.19 227.175L1824.83 227.175L1824.83 260.042C1824.83 272.497 1824.32 280.615 1823.3 284.398C1821.78 290.21 1818.45 295.077 1813.32 298.998C1808.23 302.919 1801.65 304.879 1793.56 304.879C1787.32 304.879 1782.07 303.749 1777.82 301.489C1773.57 299.228 1770.22 296.345 1767.77 292.839C1765.36 289.38 1763.77 285.851 1762.98 282.253C1762.01 277.363 1761.53 270.282 1761.53 261.01L1761.53 247.656L1723.19 247.656L1723.19 227.175ZM1807.63 247.656L1778.79 247.656L1778.79 258.865C1778.79 266.938 1779.32 272.335 1780.39 275.057C1781.45 277.778 1783.11 279.9 1785.38 281.423C1787.64 282.991 1790.28 283.775 1793.28 283.775C1796.98 283.775 1800.03 282.691 1802.43 280.523C1804.84 278.355 1806.34 275.61 1806.94 272.289C1807.4 269.844 1807.63 264.931 1807.63 257.551L1807.63 247.656Z" fill="black"/>
<path d="M1760.56 382.999L1754.25 402.857C1743.15 399.813 1734.9 394.739 1729.5 387.635C1724.13 380.577 1721.45 371.605 1721.45 360.718C1721.45 347.249 1726.05 336.178 1735.25 327.505C1744.49 318.833 1757.11 314.497 1773.11 314.497C1790.02 314.497 1803.15 318.856 1812.49 327.575C1821.87 336.293 1826.56 347.756 1826.56 361.964C1826.56 374.373 1822.89 384.452 1815.54 392.201C1811.19 396.814 1804.95 400.274 1796.82 402.58L1791.96 382.307C1797.23 381.107 1801.39 378.593 1804.44 374.765C1807.49 370.982 1809.02 366.369 1809.02 360.926C1809.02 353.407 1806.32 347.295 1800.91 342.59C1795.5 337.931 1786.74 335.601 1774.63 335.601C1761.78 335.601 1752.63 337.908 1747.18 342.52C1741.72 347.133 1738.99 353.13 1738.99 360.511C1738.99 365.954 1740.73 370.636 1744.19 374.557C1747.66 378.478 1753.11 381.292 1760.56 382.999Z" fill="black"/>
<path d="M1723.19 439.737L1807.63 439.737L1807.63 409.638L1824.83 409.638L1824.83 490.249L1807.63 490.249L1807.63 460.219L1723.19 460.219L1723.19 439.737Z" fill="black"/>
<path d="M1824.83 508.101L1824.83 578.194L1740.24 578.194L1740.24 587.12L1701 587.12L1701 570.098L1723.19 570.098L1723.19 506.232L1701 506.232L1701 489.211L1740.24 489.211L1740.24 497.791C1748.93 501.989 1759.01 504.756 1770.47 506.094C1781.98 507.432 1796.52 508.101 1814.08 508.101L1824.83 508.101ZM1807.77 527.613C1776.9 527.613 1754.39 524.822 1740.24 519.241L1740.24 557.782L1807.77 557.782L1807.77 527.613Z" fill="black"/>
<path d="M1773.38 596.807C1783.74 596.807 1792.43 598.352 1799.45 601.443C1804.63 603.749 1809.27 606.886 1813.39 610.853C1817.5 614.866 1820.55 619.249 1822.54 624C1825.22 630.32 1826.56 637.608 1826.56 645.865C1826.56 660.811 1821.92 672.758 1812.62 681.707C1803.33 690.702 1790.42 695.2 1773.87 695.2C1757.46 695.2 1744.61 690.749 1735.32 681.846C1726.08 672.943 1721.45 661.042 1721.45 646.142C1721.45 631.058 1726.05 619.064 1735.25 610.161C1744.49 601.258 1757.21 596.807 1773.38 596.807ZM1774.08 617.911C1762.57 617.911 1753.83 620.563 1747.87 625.868C1741.95 631.173 1738.99 637.908 1738.99 646.073C1738.99 654.237 1741.93 660.926 1747.8 666.139C1753.72 671.397 1762.57 674.027 1774.35 674.027C1786 674.027 1794.69 671.467 1800.42 666.346C1806.15 661.272 1809.02 654.514 1809.02 646.073C1809.02 637.631 1806.11 630.827 1800.28 625.661C1794.51 620.494 1785.77 617.911 1774.08 617.911Z" fill="black"/>
<path d="M1824.83 712.291L1824.83 781L1807.77 781L1807.77 732.772L1723.19 732.772L1723.19 712.291L1824.83 712.291Z" fill="black"/>
<path d="M1267.03 1071.49H1149.19H1031.35H795.678L816.627 1167.59H1169.36L1177.08 1203.09C1183.71 1233.6 1160.43 1262.43 1129.17 1262.43H895.808L916.524 1360.1H1034.62L1075.42 1551.54H957.317L978.113 1647.67H1212.76L1151.15 1360.1V1360.1C1242.49 1360.1 1310.61 1276.07 1291.61 1186.85L1267.03 1071.49Z" fill="black"/>
<path d="M1065.48 948.464C1059.83 921.858 1036.36 902.836 1009.18 902.836V902.836C972.572 902.836 945.264 936.605 952.886 972.455L954.048 977.923C959.705 1004.53 983.175 1023.55 1010.35 1023.55V1023.55C1046.96 1023.55 1074.27 989.781 1066.64 953.931L1065.48 948.464Z" fill="black"/>
<path d="M887.298 948.464C881.641 921.858 858.171 902.836 830.999 902.836V902.836C794.387 902.836 767.079 936.605 774.701 972.455L775.864 977.923C781.52 1004.53 804.991 1023.55 832.162 1023.55V1023.55C868.774 1023.55 896.082 989.781 888.46 953.931L887.298 948.464Z" fill="black"/>
<path d="M1359.39 1479.01L1477.22 1479.01L1595.06 1479.01L1830.74 1479.01L1809.79 1382.91L1457.06 1382.91L1449.34 1347.42C1442.71 1316.9 1465.99 1288.07 1497.25 1288.07L1730.61 1288.07L1709.89 1190.41L1591.8 1190.41L1550.99 998.968L1669.1 998.968L1648.3 902.835L1413.66 902.835L1475.26 1190.41V1190.41C1383.93 1190.41 1315.81 1274.44 1334.81 1363.65L1359.39 1479.01Z" fill="black"/>
<path d="M1560.94 1602.04C1566.59 1628.65 1590.06 1647.67 1617.23 1647.67V1647.67C1653.85 1647.67 1681.15 1613.9 1673.53 1578.05L1672.37 1572.58C1666.71 1545.98 1643.24 1526.95 1616.07 1526.95V1526.95C1579.46 1526.95 1552.15 1560.72 1559.77 1596.57L1560.94 1602.04Z" fill="black"/>
<path d="M1739.12 1602.04C1744.78 1628.65 1768.25 1647.67 1795.42 1647.67V1647.67C1832.03 1647.67 1859.34 1613.9 1851.72 1578.05L1850.55 1572.58C1844.9 1545.98 1821.43 1526.95 1794.26 1526.95V1526.95C1757.64 1526.95 1730.34 1560.72 1737.96 1596.57L1739.12 1602.04Z" fill="black"/>
<path d="M206.658 1799.61L206.658 1681.78L206.658 1563.94L206.658 1328.26L302.755 1349.21L302.755 1701.94L338.254 1709.66C368.767 1716.29 397.599 1693.01 397.599 1661.75L397.599 1428.39L495.263 1449.11L495.263 1567.2L686.702 1608.01L686.702 1489.9L782.835 1510.7L782.835 1745.34L495.263 1683.74V1683.74C495.263 1775.07 411.232 1843.19 322.016 1824.19L206.658 1799.61Z" fill="black"/>
<path d="M83.6276 1598.06C57.022 1592.41 38 1568.94 38 1541.77V1541.77C38 1505.15 71.7692 1477.85 107.619 1485.47L113.087 1486.63C139.693 1492.29 158.715 1515.76 158.715 1542.93V1542.93C158.715 1579.54 124.945 1606.85 89.0954 1599.23L83.6276 1598.06Z" fill="black"/>
<path d="M83.6276 1419.88C57.022 1414.22 38 1390.75 38 1363.58V1363.58C38 1326.97 71.7692 1299.66 107.619 1307.28L113.087 1308.45C139.693 1314.1 158.715 1337.57 158.715 1364.74V1364.74C158.715 1401.36 124.945 1428.66 89.0954 1421.04L83.6276 1419.88Z" fill="black"/>
<path d="M614.178 930.771L614.178 1048.61L614.178 1166.45L614.178 1402.12L518.081 1381.18L518.081 1028.44L482.581 1020.73C452.069 1014.1 423.237 1037.37 423.237 1068.63L423.237 1301.99L325.573 1281.28L325.573 1163.19L134.134 1122.38L134.134 1240.49L38.001 1219.69L38.001 985.045L325.573 1046.65V1046.65C325.573 955.317 409.604 887.193 498.82 906.197L614.178 930.771Z" fill="black"/>
<path d="M737.208 1132.32C763.814 1137.98 782.836 1161.45 782.836 1188.62V1188.62C782.836 1225.23 749.067 1252.54 713.217 1244.92L707.749 1243.75C681.143 1238.1 662.121 1214.63 662.121 1187.46V1187.46C662.121 1150.84 695.891 1123.54 731.741 1131.16L737.208 1132.32Z" fill="black"/>
<path d="M737.208 1310.51C763.814 1316.16 782.836 1339.63 782.836 1366.8V1366.8C782.836 1403.42 749.067 1430.72 713.217 1423.1L707.749 1421.94C681.143 1416.28 662.121 1392.81 662.121 1365.64V1365.64C662.121 1329.03 695.891 1301.72 731.741 1309.34L737.208 1310.51Z" fill="black"/>
<path d="M290.31 42.3611H326.829L322.037 64.704C340.771 64.7901 355.448 70.2143 366.066 80.9768C376.685 91.6532 381.995 105.343 381.995 122.046C381.995 136.081 378.455 149.684 371.376 162.858C364.297 176.031 353.807 186.836 339.908 195.274C326.095 203.626 309.692 208.318 290.699 209.352L285.648 233.373H249.26L254.439 209.352C232.77 206.682 217.446 199.665 208.468 188.3C199.489 176.935 195 163.848 195 149.039C195 128.289 203.158 109.648 219.475 93.1169C235.792 76.4996 257.85 66.8134 285.648 64.0582L290.31 42.3611ZM298.08 176.418C309.821 175.643 320.267 169.918 329.419 159.241C338.656 148.565 343.275 137.286 343.275 125.404C343.275 107.754 333.994 98.0246 315.433 96.2165L298.08 176.418ZM278.785 96.4748C267.044 98.7995 256.555 104.568 247.317 113.781C238.08 122.907 233.461 134.402 233.461 148.264C233.461 157.39 236.18 164.407 241.619 169.315C247.144 174.137 253.706 176.72 261.303 177.064L278.785 96.4748Z" fill="black"/>
<path d="M390.671 231.694L430.297 42.3611H571.061L564.457 74.0027H462.801L453.736 117.01H552.025L545.421 148.651H447.132L435.218 200.053H545.68L538.946 231.694H390.671ZM463.837 0H495.694L489.089 31.6417H457.233L463.837 0ZM518.356 0H550.212L543.608 31.6417H511.751L518.356 0Z" fill="black"/>
<path d="M606.544 231.694H567.435L607.191 42.3611H684.372C698.098 42.3611 708.933 43.997 716.876 47.2688C724.904 50.4544 731.25 55.7926 735.912 63.2833C740.574 70.6879 742.905 79.5562 742.905 89.8881C742.905 99.4452 741.048 108.744 737.336 117.784C733.624 126.825 729.048 134.057 723.609 139.482C718.257 144.906 712.473 149.039 706.257 151.88C700.041 154.635 691.667 156.745 681.134 158.208C675.005 159.069 663.523 159.5 646.688 159.5H621.695L606.544 231.694ZM628.17 128.116H640.213C660.846 128.116 674.616 126.825 681.523 124.242C688.429 121.659 693.868 117.526 697.839 111.844C701.811 106.161 703.796 99.9188 703.796 93.1169C703.796 88.5536 702.76 84.8082 700.688 81.8809C698.703 78.9535 695.854 76.844 692.142 75.5525C688.516 74.1749 680.357 73.4861 667.666 73.4861H639.695L628.17 128.116Z" fill="black"/>
<path d="M881.985 163.503L921.352 169.444C913.669 190.711 902.144 206.984 886.777 218.263C871.409 229.456 853.409 235.052 832.776 235.052C809.553 235.052 791.38 228.078 778.257 214.13C765.221 200.182 758.703 179.948 758.703 153.43C758.703 131.905 763.063 112.231 771.783 94.4084C780.588 76.4996 792.761 62.8098 808.301 53.3388C823.841 43.8678 840.762 39.1323 859.064 39.1323C879.611 39.1323 896.23 44.6427 908.921 55.6635C921.611 66.5981 929.079 81.5364 931.324 100.478L893.899 104.095C891.827 93.0738 887.813 85.1096 881.856 80.2019C875.985 75.2081 868.129 72.7112 858.287 72.7112C847.496 72.7112 837.395 75.983 827.985 82.5266C818.661 89.0702 811.193 99.316 805.581 113.264C799.97 127.126 797.164 140.988 797.164 154.85C797.164 170.004 800.79 181.713 808.042 189.979C815.38 198.245 824.488 202.377 835.366 202.377C845.467 202.377 854.704 199.106 863.078 192.562C871.539 186.018 877.841 176.332 881.985 163.503Z" fill="black"/>
<path d="M1008.63 231.694H969.526L1002.68 74.0027H946.993L953.597 42.3611H1103.17L1096.56 74.0027H1041.66L1008.63 231.694Z" fill="black"/>
<path d="M1144.99 42.3611H1277.86L1244.19 200.053H1260.9L1242.9 284H1211.17L1222.56 231.694H1100.45L1089.05 284H1057.32L1075.58 200.053H1092.68C1114.35 163.46 1131.79 110.896 1144.99 42.3611ZM1232.54 74.0027H1176.33C1164.76 125.318 1150.43 167.335 1133.34 200.053H1205.6L1232.54 74.0027Z" fill="black"/>
<path d="M1292.1 157.433C1292.1 146.24 1293.79 134.445 1297.15 122.046C1301.56 105.429 1308.25 91.0074 1317.23 78.7813C1326.29 66.5551 1337.69 56.9119 1351.41 49.8518C1365.14 42.7055 1380.77 39.1323 1398.29 39.1323C1421.77 39.1323 1440.72 46.4078 1455.14 60.9586C1469.65 75.5095 1476.9 94.7958 1476.9 118.818C1476.9 138.793 1472.19 158.122 1462.78 176.806C1453.37 195.489 1440.59 209.868 1424.45 219.942C1408.31 230.015 1390.05 235.052 1369.67 235.052C1351.98 235.052 1337.13 231.049 1325.13 223.041C1313.13 215.034 1304.62 205.133 1299.62 193.337C1294.61 181.455 1292.1 169.487 1292.1 157.433ZM1330.69 156.658C1330.69 169.66 1334.67 180.551 1342.61 189.333C1350.55 198.115 1361 202.507 1373.95 202.507C1384.48 202.507 1394.58 199.063 1404.25 192.175C1414 185.201 1422.03 174.696 1428.34 160.662C1434.72 146.542 1437.92 132.809 1437.92 119.463C1437.92 104.568 1433.9 92.9016 1425.88 84.4638C1417.85 75.94 1407.62 71.678 1395.18 71.678C1376.11 71.678 1360.57 80.5463 1348.57 98.2829C1336.65 116.019 1330.69 135.478 1330.69 156.658Z" fill="black"/>
<path d="M1527.66 42.3611H1667L1660.53 74.0027H1559.65L1525.72 231.694H1487.13L1527.66 42.3611Z" fill="black"/>
<path d="M195.089 322.041H385.013L373.607 375.94C372.369 381.604 370.247 386.915 367.241 391.871C364.235 396.65 360.61 400.81 356.366 404.35C352.121 407.713 347.347 410.368 342.042 412.315C336.736 414.262 331.166 415.236 325.33 415.236H288.99L269.096 507.9H231.429L250.262 415.236H232.49C225.063 415.236 218.254 413.643 212.065 410.457C205.876 407.271 200.659 403.111 196.415 397.978C192.171 392.844 189.164 386.915 187.396 380.188C185.628 373.285 185.539 366.293 187.131 359.213L195.089 322.041ZM321.086 383.64C324.623 383.64 327.718 382.578 330.37 380.454C333.023 378.33 334.791 375.497 335.675 371.957L339.654 353.106H301.722L295.356 383.64H321.086ZM223.471 365.85C222.587 370.453 223.56 374.612 226.389 378.33C229.395 381.87 233.197 383.64 237.795 383.64H257.424L264.056 353.106H226.389L223.471 365.85Z" fill="black"/>
<path d="M480.229 284.603C481.113 280.355 483.235 276.903 486.595 274.248C489.955 271.416 493.845 270 498.266 270C501.273 270 503.925 270.62 506.224 271.859C508.7 273.098 510.733 274.779 512.325 276.903C514.093 279.027 515.331 281.417 516.039 284.072C516.746 286.727 516.834 289.471 516.304 292.303L516.039 294.162C515.154 298.41 512.944 301.95 509.407 304.782C506.047 307.437 502.245 308.765 498.001 308.765C495.172 308.765 492.519 308.145 490.043 306.906C487.568 305.667 485.445 303.986 483.677 301.862C482.086 299.738 480.936 297.348 480.229 294.693C479.521 292.038 479.433 289.294 479.963 286.462L480.229 284.603ZM537.259 284.603C538.143 280.355 540.265 276.903 543.625 274.248C546.985 271.416 550.876 270 555.297 270C558.303 270 560.956 270.62 563.254 271.859C565.73 273.098 567.764 274.779 569.355 276.903C571.124 279.027 572.362 281.417 573.069 284.072C573.776 286.727 573.865 289.471 573.334 292.303L572.804 294.162C571.92 298.41 569.798 301.95 566.438 304.782C563.078 307.437 559.276 308.765 555.032 308.765C552.025 308.765 549.284 308.145 546.809 306.906C544.333 305.667 542.211 303.986 540.442 301.862C538.851 299.738 537.701 297.348 536.994 294.693C536.287 292.038 536.287 289.294 536.994 286.462L537.259 284.603ZM415.771 322.041H567.499L560.867 353.106H447.337L444.684 365.319C444.154 367.621 444.154 369.922 444.684 372.223C445.215 374.347 446.187 376.294 447.602 378.064C449.017 379.657 450.697 380.985 452.642 382.047C454.764 383.109 457.063 383.64 459.539 383.64H535.402L528.771 415.236H490.574L477.576 476.835H515.508L508.877 507.9H432.482L452.377 415.236C445.126 415.236 438.406 413.731 432.217 410.722C426.204 407.536 421.076 403.376 416.832 398.243C412.765 393.11 409.847 387.269 408.078 380.719C406.31 373.993 406.222 367.09 407.813 360.009L415.771 322.041Z" fill="black"/>
<path d="M599.844 322.041H751.306L739.104 379.923C738.043 385.056 736.186 389.747 733.534 393.995C730.881 398.243 727.61 401.96 723.719 405.146C720.006 408.156 715.761 410.545 710.987 412.315C706.212 414.085 701.261 414.97 696.132 414.97H618.146L598.517 507.9H560.585L599.844 322.041ZM631.409 352.84L625.043 383.374H688.97C692.507 383.374 695.602 382.312 698.254 380.188C700.907 378.064 702.587 375.32 703.294 371.957L707.538 352.84H631.409Z" fill="black"/>
<path d="M931.609 322.041L925.508 352.84H811.447L785.452 476.835H898.982L892.616 507.9H740.888L780.412 322.041H931.609Z" fill="black"/>
<path d="M1114.3 322.041L1107.67 352.84H1050.9L1018.01 507.9H979.813L1012.71 352.84H988.567C986.975 357.443 984.146 361.248 980.079 364.257C976.188 367.09 971.767 368.506 966.816 368.506H956.736C955.144 368.506 953.907 368.417 953.022 368.24L962.837 322.041H1114.3Z" fill="black"/>
<path d="M1298.78 322.041L1259.26 507.9H1108.06L1147.58 322.041H1298.78ZM1152.36 477.101H1228.49L1254.75 352.575H1178.88L1152.36 477.101ZM1071.72 506.838C1072.6 502.59 1074.73 499.138 1078.09 496.483C1081.45 493.651 1085.34 492.235 1089.76 492.235C1092.76 492.235 1095.42 492.855 1097.71 494.094C1100.19 495.333 1102.22 497.014 1103.82 499.138C1105.58 501.262 1106.82 503.652 1107.53 506.307C1108.24 508.962 1108.32 511.706 1107.79 514.538L1107.53 516.397C1106.64 520.645 1104.43 524.097 1100.9 526.752C1097.54 529.584 1093.74 531 1089.49 531C1086.49 531 1083.74 530.38 1081.27 529.141C1078.79 527.902 1076.67 526.221 1074.9 524.097C1073.31 521.973 1072.16 519.583 1071.45 516.928C1070.75 514.273 1070.66 511.529 1071.19 508.697L1071.72 506.838ZM1259.52 506.838C1260.41 502.59 1262.53 499.138 1265.89 496.483C1269.42 493.651 1273.4 492.235 1277.82 492.235C1280.83 492.235 1283.48 492.855 1285.78 494.094C1288.26 495.333 1290.29 497.014 1291.88 499.138C1293.65 501.262 1294.89 503.652 1295.6 506.307C1296.3 508.962 1296.39 511.706 1295.86 514.538L1295.33 516.397C1294.45 520.645 1292.33 524.097 1288.97 526.752C1285.61 529.584 1281.72 531 1277.29 531C1274.46 531 1271.81 530.38 1269.34 529.141C1266.86 527.902 1264.74 526.221 1262.97 524.097C1261.38 521.973 1260.23 519.583 1259.52 516.928C1258.81 514.273 1258.73 511.529 1259.26 508.697L1259.52 506.838Z" fill="black"/>
<path d="M1343.72 322.041H1494.92L1462.29 475.773C1461.23 480.552 1459.46 484.889 1456.99 488.783C1454.69 492.678 1451.77 496.041 1448.23 498.873C1444.7 501.705 1440.72 503.918 1436.3 505.511C1432.05 507.104 1427.54 507.9 1422.77 507.9H1304.2L1343.72 322.041ZM1375.29 353.106L1349.03 476.835H1412.16C1415.7 476.835 1418.79 475.773 1421.44 473.649C1424.27 471.348 1426.13 468.427 1427.01 464.887L1450.62 353.106H1375.29Z" fill="black"/>
<path d="M1667 322.041L1657.45 368.24H1653.21C1648.08 368.24 1643.48 366.824 1639.41 363.992C1635.52 360.983 1632.87 357.177 1631.46 352.575H1566.47L1533.31 507.9H1495.11L1534.9 322.041H1667Z" fill="black"/>
</svg>
